<?xml version="1.0" encoding="UTF-8"?>
<!DOCTYPE svg PUBLIC "-//W3C//DTD SVG 1.1//EN" "http://www.w3.org/Graphics/SVG/1.1/DTD/svg11.dtd">
<!-- Creator: CorelDRAW 2020 (64 Bit) -->
<svg xmlns="http://www.w3.org/2000/svg" xml:space="preserve" width="5000mm" height="5000mm" version="1.1" style="shape-rendering:geometricPrecision; text-rendering:geometricPrecision; image-rendering:optimizeQuality; fill-rule:evenodd; clip-rule:evenodd"
viewBox="0 0 500000 500000"
 xmlns:xlink="http://www.w3.org/1999/xlink"
 xmlns:xodm="http://www.corel.com/coreldraw/odm/2003">
 <defs>
  <style type="text/css">
   <![CDATA[
    .str2 {stroke:#373435;stroke-width:20;stroke-miterlimit:22.9256}
    .str1 {stroke:#373435;stroke-width:20;stroke-miterlimit:22.9256}
    .str0 {stroke:#373435;stroke-width:7.62;stroke-miterlimit:22.9256}
    .fil11 {fill:#FEFEFE}
    .fil5 {fill:#D2D3D5}
    .fil2 {fill:#A9ABAE}
    .fil6 {fill:#606062}
    .fil0 {fill:#373435}
    .fil7 {fill:#A98F71}
    .fil4 {fill:#847059}
    .fil9 {fill:#ED3237}
    .fil8 {fill:#91D8F7}
    .fil10 {fill:#492E2E}
    .fil1 {fill:#52658C}
    .fil3 {fill:#F0D270}
    .fil12 {fill:#373435;fill-rule:nonzero}
   ]]>
  </style>
 </defs>
 <g id="Camada_x0020_1">
  <metadata id="CorelCorpID_0Corel-Layer"/>
  <g id="_2254687597632">
   <path class="fil0" d="M365374.72 18097.54c15401.9,-2759.87 30781.87,11154.12 34352.06,31077.68 3570.1,19923.61 -6021.44,38312.3 -21423.43,41072.22 -15401.94,2759.88 -30781.87,-11154.11 -34352.06,-31077.68 -3570.15,-19923.61 6021.44,-38312.29 21423.43,-41072.22zm1231.76 1206.46c14024.56,-2636.92 28029.12,10657.07 31280.04,29692.88 3250.87,19035.82 -5482.96,36605.13 -19507.57,39242.05 -14024.56,2636.92 -28029.12,-10657.06 -31280.04,-29692.88 -3250.87,-19035.82 5482.96,-36605.13 19507.57,-39242.05z"/>
   <path class="fil0" d="M371761.88 31067.09c9736.04,-1744.61 19458.22,7050.88 21715.06,19645.21 2256.77,12594.37 -3806.36,24218.46 -13542.46,25963.1 -9736.07,1744.6 -19458.22,-7050.88 -21715.06,-19645.22 -2256.8,-12594.37 3806.36,-24218.45 13542.46,-25963.09zm778.63 762.64c8865.38,-1666.88 17718.13,6736.68 19773.14,18769.84 2054.98,12033.16 -3465.96,23139.3 -12331.37,24806.18 -8865.39,1666.88 -17718.13,-6736.68 -19773.14,-18769.84 -2054.98,-12033.16 3465.96,-23139.3 12331.37,-24806.18z"/>
   <g>
    <path class="fil1 str0" d="M255330.87 346600.45l0 0zm10979.3 5032.14l0 0zm24808.67 13852.09l0 0zm11674.67 3096.84l0 0zm18275.39 -86520.58c-53.69,6810.59 -1418.4,20360.31 -2382.92,29937.11 -66.04,655.72 -449.42,10430.53 -1058.3,10932.88 -2354.53,1940.98 -24279.47,-1491.89 -28099.76,-2302.25 -9142.51,-1939.24 -16422.18,-4993.04 -21350.55,-8440.84 -137.89,-96.49 -103.63,-46.27 -141.64,-206.21 -1641.84,-6905.07 -2489.27,-29527.78 -2539.86,-35685 -7449.24,6962.74 -10426.64,10399.98 -16760.84,16755.15 1710.55,9600.51 1547.18,21620.31 1131.75,30687.82 -305.48,6672.86 -2261.66,17219.12 -2979.09,24601.52 -168.06,1729.51 -142.25,3679.68 13.37,5239.67 202.7,2032.02 726.35,4395.28 2191.64,6525.49l6238.17 -13505.83 2906.44 -6343.68c222.41,-485.6 1075.95,-567.77 2275.88,-308.01 2267.71,490.85 5597.43,2016.3 7451.06,3413.91 980.35,739.16 1475.61,1439 1253.39,1923.99l-2906.91 6346.21 -8108.1 17558.66c8431.27,6523.66 19940.93,11735.21 28050.77,14372.04 1674.12,-6214.85 3196.94,-11863.72 4865.44,-18078.89l1788.31 -6744.71c357.14,-1346.87 4887.54,-383.42 6248.12,-1.08 1542.91,409.1 2907.05,918.91 3864.97,1412.3 1091.89,562.38 1698.9,1167.88 1562.28,1683.09l-1788.63 6747.33 -4743.75 17678.15c9628.01,1216.69 22683.16,2965.53 32862.42,-225.32 141.08,-1438.53 242.35,-2456.51 390.51,-3930.34l-11010.92 1238.33c-672.76,199.22 -1370.06,292.71 -2083.93,268.91 -2923.43,-96.86 -5481.93,-2107.25 -7223.54,-5123.56 -3457.04,-5987.33 -3403.12,-15592.48 908.63,-21175.22 1737.53,-2249.69 4004.26,-3561.5 6467.57,-3479.33 140.85,4.65 280.93,13.75 420.04,27.32l16411.52 -517.51 547.59 -5431.15c140.28,-1390.8 4756.71,-1146.72 6169.1,-988.46 1589.69,160.31 3016.82,447.91 4038.84,783.09 1167.41,382.82 1862.79,884.98 1809.29,1415.35l-397.18 3938.97 6767.37 -274.69c3407.48,-10383.88 5928.57,-17319.17 7443.41,-22529.08 260.89,-897.37 691.63,-2392.03 -244.41,-1500.67 -490.34,466.96 -1267.05,940.83 -2274.52,1337.3 -1405.12,553.04 -3305.92,935.71 -5679.46,787.36 -3819.44,-238.69 -8878.05,-1853.31 -15082.58,-6360.43 -133.23,-96.82 -100.05,-46.08 -136.1,-208.98 -1940.08,-8764.95 -1633.43,-14891.05 -1321.29,-21125.71 34.21,-683.22 326.31,-8004.1 222.17,-8101.43 -1936.05,-1808.87 -3561.6,-3436.3 -4644.44,-4520.17l-269.3 -269.53 -0.7 0.71c-2194.31,-2194.59 -6201.24,-5102.3 -11071.33,-8234.58z"/>
    <path class="fil1 str0" d="M324438.13 250610.49c5326.03,1119.12 11616.25,2711.58 16347.7,4720.66 -2537.14,-6799.94 -2685.44,-14682.16 -132.44,-21831.65 -840.44,-356.72 -992.73,-1289.05 -741.56,-2643.77 287.88,-1552.76 1198.01,-3926.67 1961.02,-6068.42 934.35,-2622.7 765.21,-7150.75 2312.58,-11678.2 1450.68,-4244.68 4346.8,-10901.06 6822.32,-14295.35 6378.17,-8745.28 15668.75,-19059.37 24997.66,-21499.37 871.23,-227.85 774.23,-202.51 1023.01,-269.85 -395.87,-611.61 -1108.7,-1051.87 -2612.7,-1039.76 -4644.02,37.45 -10158.1,2894.05 -15949.54,7480.91 -8413.05,6663.14 -16544.66,15561.74 -20209.79,20998.43 -2580.04,3827.18 -4654.02,8342.52 -6778.97,15436.67 -2115.51,7062.52 -4280.07,16675.56 -7039.29,30689.7z"/>
    <path class="fil1 str0" d="M260961.9 235092.11c-1515.59,-15730.22 -3570.28,-37067.26 2891.85,-42369.58 -484.94,-631.79 -962.18,-1266.11 -1431.5,-1901.65l-8.11 51.3c-1400.52,-224.52 -3838.64,435.8 -5835.89,1243.76 -1590.59,643.48 -2180.93,990.06 -3428.69,2085.25 -6334.34,5560.06 -4657.63,34594.83 -3469.38,55171.58l35.81 620.39c3584.5,-1472.56 7777,-2792.69 12181.15,-3730.46 -148.25,-3002.75 -521.5,-6876.25 -935.24,-11170.59z"/>
   </g>
   <g>
    <path class="fil2 str1" d="M251176.3 147240.8c15418.74,-2335.38 27314.27,-12365.4 39465.06,-20679.01l396.01 580.25c-10631.17,10489.62 -24167.92,18433.32 -39756.61,20794.47l-104.46 -695.71zm25850.49 -1181.96c12058.8,-5488.78 21875.66,-10906.46 29826.97,-19640.15 7902.96,-8680.65 13066.5,-31605.79 22899.6,-32910.05l302.52 632.44c-1809.9,865.69 -2557.65,1270.61 -3831.6,2660.06 5236.9,3585.53 9127.68,15369.6 11197.72,27511.15 2364.15,13866.77 2381.8,29658.24 -640.38,36994.18 -6603.3,16028.76 -18508.07,30741.33 -36125.21,33615.39 -25731.57,4197.8 -33274.2,-7244.1 -40265.85,-17735.68 -1855.42,-2784.24 -3698.31,-5549.61 -5875.73,-7997.44l-2444.36 -2829.8c-1341.15,-491.37 -2591.91,-1101.71 -3743.45,-1776.77 -3823.76,-2241.52 -6552.15,-5198.09 -7855.75,-6862.87 -1185.86,109.82 -2358.29,185 -3514.53,222.83 5580.29,3417.19 13283.09,11693.91 16086.19,16859.57 7818.16,14407.8 24660.28,37422.53 42863.87,40648.67 13972.27,2476.27 29037.16,-5138.58 38398.32,-14870.83l3177.93 -3307.37c14558.97,-15160.2 23990.34,-26566.71 31925.49,-29858.08 -732.17,-5478.22 -3776.54,-22309.07 -8787.61,-37547.65 -4296.12,-13064.4 -8921.32,-24570.12 -11377.97,-25792.96l-247.38 -123.14 61.76 -270.09c461.24,-2017.01 2366.64,-5193.49 5057.58,-6564.44 3080.89,-1569.56 4542.88,-1585.01 7268.92,-2006.21 -3.52,-1.64 -4344.93,-3172.97 -6492.82,-4207.8 104.94,-213.02 94,-726.58 314.77,-639.06 3432.4,1361.05 4029.41,1797.04 5799.65,2807.61 4317.05,2464.54 8453.74,4826.11 18487.05,2892.83 23330.15,-4494.73 24649.76,-36368.22 20092,-54441.48 -1730.77,-6862.97 -5915.24,-13862.6 -11312.37,-19267.05 -5089.11,-5096.06 -11249.47,-8766.91 -17434.66,-9553.76 -21613.65,-2749.6 -36619.5,17188.84 -42586.78,35043.4l-665.49 -222.73c1501.52,-4492.67 2401.47,-8302.3 5022.9,-12701.06 -15525.14,14299.3 -28027.49,19342.23 -41179.51,24993.96 -11885.11,5107.32 -24096.25,11499.52 -30092.78,19772.91 -2999.55,4138.53 -6090.95,9882.14 -6155.53,14239.09l-701.24 -8.26c77.67,-5241.13 1584.91,-9719.01 5068.79,-14393.77 -10213.85,-1036.52 -23712.22,8059.47 -38226.55,18371.27 -2084.73,1481.15 -4175.79,2966.75 -6335.8,4475.26 -2613.17,1824.96 -10927.9,7107.24 -19210.3,11752.95 -5281.86,2962.71 -10559.03,5671.72 -14357.59,7073.69 -464.9,171.58 -1595.42,519.34 -2129.12,341.05l222.74 -665.48c820.54,274.03 4428.93,-1441.68 5381.35,-1895.22 -2801.32,-2337.83 -6206.64,-2382.18 -9735.15,-1243.72 -4921.67,1588 -8679.44,5795.94 -9922.46,11078.88 -3008.66,12786.85 4412,23696.68 13648.93,31044.97 5865.35,4666.03 13032.48,7362.31 19190.87,4452.02 2883.97,-1362.88 5756.71,-5390.08 7284.18,-10274.81 -1717.49,816.93 -2102.98,1097.81 -3839.1,2081.35l-346.45 -610.48c4441.28,-2516.03 9122.33,-5594.85 13186.84,-6064.11 4107.97,-474.29 8993.55,1335.89 10236.24,6520.93 6502.63,1927.37 13731.61,436.56 21832.86,-1063.78 9994.07,-1850.87 21050.62,-4394.91 30597.48,-8740.36zm101276.56 -55811.4c-15401.94,2759.88 -30781.87,-11154.11 -34352.06,-31077.68 -3570.15,-19923.61 6021.44,-38312.29 21423.43,-41072.22 15401.9,-2759.87 30781.87,11154.12 34352.06,31077.68 3570.1,19923.61 -6021.44,38312.3 -21423.43,41072.22z"/>
    <path class="fil2 str1" d="M262251.89 247642.05c-13362.12,2889.64 -23165.04,7787.65 -29349.86,14272.97l-508.73 -483.96c3597.55,-3772.32 6659.24,-6418.86 12574.86,-9243.41 -4724.98,-8763.67 -16445.97,-11187.67 -24769.35,-9982.24 -2030.75,294.07 -3899.92,564.72 -5025.56,2157.14 -2182.07,3086.94 -2625.42,4238.11 -3506.56,6458.71 -4026.36,10147.34 -1350.58,28351.78 1098.76,38259.35 1508.17,6100.76 2503.44,7529.63 7588.52,10136.84 1833.17,939.93 4005.19,2053.61 6598.89,3624.44 1408.77,853.21 3329.34,1093.92 5185.6,1007.8 2634.34,-122.26 4416.69,-2317.27 5121.59,-2930.75 5177.21,-4505.72 9220.41,-8364.02 13765.13,-13045.63 6457.11,-6651.59 14481.9,-13093.26 26411.83,-23022.71 8872.52,-7384.7 21760.88,-14982.14 33528.85,-16413.96 -952.7,-1065.24 -5053.87,-1821.02 -6577.72,-1941.26 -17465.32,-1378.18 -30820.92,-1300.37 -42136.25,1146.67z"/>
    <path class="fil2 str1" d="M295179.5 254162.84c-4189.21,2029.35 -10036.92,6843.21 -9964.59,7842.52 5999.48,2187.32 16879.52,7000.71 27330.51,13010.47 9313.71,5355.83 17598.27,10983.33 21272.22,14657.76 4233.56,4259.32 17459.22,17105.77 23744.13,14667.94 3513.74,-1362.88 5624.88,-3648.05 8882.84,-8131.71 1135.97,-1563.41 2350.22,-3234.49 3709.25,-4958.74 2552.16,-3238.1 4386.08,-6645.25 6710.16,-9400.77 8455.01,-10024.76 15793.39,-17492.86 19531.88,-32263.39 777.18,-3956.71 -1544.55,-9025.55 -5374.69,-13501.33 -3943.11,-4607.78 -9472.48,-8567.22 -14874.91,-10043.72 -3842.95,-1050.27 -10889.47,-1975 -17873.05,-1576.27 -6909.24,394.45 -13263.25,2450.22 -16337.75,9303.38 -1396.29,3770.82 -2472.09,7225.65 -2422.39,10878.44 54.48,4002.71 864.42,7798.87 2181.4,11083.72 953.41,435.66 1823.74,886.95 2590.69,1353.26 3468.68,2108.94 6759.82,6310.03 8390.81,10516.79l-654.5 252.96c-1570.41,-4050.58 -5260.6,-7428.45 -8595.9,-9456.24 -2975.01,-1808.73 -7266.29,-3769.56 -12249.53,-5092.17 -7030.23,-1865.89 -14619.41,-3539.87 -19683.37,-4222.62 -5317.34,576.31 -10924.48,2469.32 -16313.21,5079.72z"/>
    <path class="fil2 str1" d="M405541.69 238399.06c-4979.86,17592.27 -19181.68,43250.58 -28343.01,59112.44 -2872.84,4974.04 -5433.77,9408.19 -7375.55,13142.4 8333.42,1579.65 12066.55,6497.7 21896.04,7133.48 138.72,-5204.61 4296.96,-5292.04 4453.76,-9871.35l37.21 -1087.01 604.9 902.76c2858.9,4266.41 3306.9,8342.9 3738.9,12274.36 281.54,2562.49 141.97,3861.49 1085.57,6281.54 5261.02,3033.49 8011.09,7244.94 9897.16,10871.87 1410.14,2711.82 2866.17,4851.03 6192.98,7931.17 5609.62,-11151.06 7582.51,-25921.5 4912.23,-44858.1 -2367.44,-16788.71 -5769.9,-39278.19 -17100.19,-61833.56z"/>
    <path class="fil2 str1" d="M244997.35 397788.48l0 0zm83677.72 11367.65c-9264.57,2951.59 -19128.03,3793.91 -28837.14,2755.13 -2716.51,-290.64 -5509.71,-704.34 -8340.36,-1232.74l-1879.68 7004.94c-135.21,502.16 -1252.5,1046 -2790.43,1215.42 -614.89,67.77 -1305.06,84.29 -2030.71,23.89l-11618.5 43366.26c-647.93,2416.25 -715.74,2496.08 -3162.5,5376.24l-580.25 682.89 -152.76 -879.16c-630.71,-3629.6 -650.05,-3741.11 -11.27,-6122.96l11663.84 -43532.44c-660.42,-344.76 -1227.63,-735.27 -1682.63,-1121 -949.22,-804.72 -1430.31,-1651.69 -1310.17,-2104.86 593.72,-2239.13 1189.23,-4477.93 1786.24,-6716.45 -11269,-3270.91 -23263.84,-8468.38 -32272.07,-15408.65l-2459.9 5325.55c-217.94,472.04 -1410.79,818.44 -2954.54,724.67 -617.62,-37.55 -1300.84,-138.45 -2006.17,-321.25l-11514.02 26309.81 2009.63 7625.93 -6726.91 11299.79 -10230.09 -7789.91 4875.06 -10739.9 5868.12 -2221.29 12101.42 -26232.61c-433.17,-330.44 -813.03,-676.65 -1135.68,-1017.7 -1031.64,-1090.58 -1481.85,-2198.63 -1266.58,-2668.55l2425.07 -5259.61c100.06,-647.32 397.6,-1327.4 937.5,-2029.87l995.31 -2155.03c-2033.2,-2866.6 -2823.94,-4603.75 -3789.08,-7683.46 -4853.94,8338.86 -18171.58,9760.77 -29330.2,24921.02 1081.49,240.52 7992.37,2870.02 9902.33,5583.82 1084.57,1540.98 2060.46,-396.53 4120.92,-3770.82l599.5 365.68c-687.78,1126.3 -1190.74,2512.22 -1768.69,4104.78 -511.08,1408.36 -1080.03,2975.48 -1885.88,4677.16l-0.61 77.81 -36.05 -0.33c-1466.26,3076.1 -3712.71,6589.08 -7793.09,10399.42l-478.51 -514.28c3863.04,-3607.35 6803.74,-7700.97 4613.84,-8659.72 -23514.64,-197.06 -31072.05,1521.6 -42815.33,4843.38 -3859.33,1091.67 -7859.84,2223.41 -12515.49,3298.23l-156.75 -684.73c4635.29,-1070.12 8629.4,-2200.04 12482.54,-3289.96 3795.55,-1073.6 4669.18,-1459.47 8674.84,-2362.94 -14353.74,-10059.68 -27210.32,-30581.29 -34537.39,-52014.11 -7390.34,-21617.73 -6538.77,-45309.49 4758.81,-60826.41 10516.79,-14443.18 16442.5,-39935.92 12752.17,-69292.69 -2995.9,-23832.55 -12334.48,-50200.69 -30701.16,-75261.9 -5018.29,9759.89 3353.51,13996.31 -6879.3,33357.13 6129.35,6032.76 6185.76,5557.39 7989.93,14399.91 1114.47,-1409.1 516.57,-3259.36 1010.14,-7072l698.43 -60.54c881.56,9809.45 845.79,20076.8 -474.66,29820.26 -1335.99,9857.78 -3675.27,19519.02 -8323.18,28354.64 -4652.99,8845.38 -10436.02,17601.51 -21013.59,24144.08 -8845.85,5471.41 -23142.43,7270.47 -33505.94,5045.14 8274.66,8037.32 25097.81,20375.42 37849.65,20537.28 3069.43,-6646.38 7446.84,-11343.71 11643.56,-16785.89l555.47 428.95c-12047.02,15622.19 -19290.46,37096.17 -22490.83,59606.9 -3625.67,25501.8 -322.09,51826.91 5326.77,72980.4 5947.39,22271.48 17553.59,36864.65 38556.57,48896.24 15149.03,8678.17 30737.52,14351.2 48548.77,15767.21 29282.61,2327.97 47189.73,3532.27 76359.33,-1156.39 25759.92,-4140.59 44900.68,-18322.6 56875.43,-41152.7 961.76,-6427.83 3038.18,-12963.45 3785.65,-19416.15 637.27,-5501.5 1182.57,-10677.39 1691.25,-15760.96z"/>
    <path class="fil2 str1" d="M341184.56 403616.94c-795.06,7606.36 -1562.1,15223.14 -2219.47,22880.42 -244.27,2845.99 -516.57,6700.35 -775.21,10704.13 2237.3,904.69 4255.81,1540.42 5854.05,2080.27 2650.9,895.4 3932.21,1557.79 8234.39,1606.97 1185.1,-20561.55 -2409.12,-28269.42 -6430.36,-34701.04 -960.63,-1536.48 -1819.33,-2909.92 -2462.19,-4239.24 -681.54,781.07 -1304.92,1146.43 -2201.21,1668.49z"/>
   </g>
   <g>
    <path class="fil3 str2" d="M249029.1 250280.19c-381.87,-6604.57 -1449.27,-15073.66 -6697.02,-19477.02l451.01 -538.96c2627.63,1073.27 3791.57,1829 5400.27,4220.66 -965.33,-18473.49 -1158.35,-33566.44 3704.18,-39939.82 -9826.15,2460.83 -17086.72,7259.3 -22441,12966.17 -7698.11,8204.87 -11464.66,18292.66 -13254.51,26013.67 -367.94,1587.35 -343.96,3180.76 -746.49,4548.42 -924.17,3139.98 -1613.3,4795.71 -736.44,5760.56 119.11,-172.24 57.63,-72.69 188.57,-257.93 1330.59,-1882.31 3112.14,-1763.16 5340.75,-2086.32 8560.28,-1241.33 22184.57,547.78 27020.26,9575.82 578.89,-267.98 1169.1,-529.76 1770.42,-785.25z"/>
    <path class="fil3 str2" d="M265076.58 194289.13c-6155.1,5073.77 -4915.79,25173.19 -3416.25,40737 409.61,4251.58 779.66,8091.95 932.19,11090 11261.96,-2328.58 25145.68,-2774.61 41897.36,-316.45 1761.51,258.44 6574.49,958.42 7276.43,2612.13 3226.24,439.18 7505.23,1133.86 11983.2,2055.49 2762.6,-14030.75 4931.62,-23661.16 7054.17,-30747.28 2147.75,-7170.28 4249.99,-11743.06 6869.73,-15629.09 3690.85,-5474.84 11881.45,-15031.33 20358.29,-21745.01 5759.57,-4561.61 11666.32,-7817.27 16429.54,-7624.33 -57.02,-1003.01 -272.67,-2575.77 -742.68,-4108.96 -427.12,-1393.81 -1260.01,-2842.29 -2756.13,-3299.96 113.9,556.93 100.2,934.26 22.58,1252.31l-222.74 88.89c-7820.74,3122.18 -18136.43,13863.87 -32773.2,29105.07l-3177.94 3307.37c-2874.67,2988.62 -10147.54,9663.68 -19507.15,13570.55 -5785.38,2414.94 -12368.03,3774.11 -19207.77,2561.97 -12316.32,-2182.76 -23044.3,-12639.95 -31019.63,-22909.7z"/>
    <path class="fil3 str2" d="M351574.21 199226.29c-2420.47,3318.78 -4930.67,9984.12 -6350.76,14139.3 -1531.65,4481.55 -1187.97,8988.67 -2160.1,11717.53 -832.84,2337.91 -2589.99,6612.82 -1595.19,6695.47 878.13,-1609.69 2080.97,-3115.71 4062.55,-4675.37 3443.99,-2710.7 7998.09,-3760.22 12579.88,-4021.81 7078.38,-404.17 14333.18,1221.71 18219.96,2284 5540.92,1514.37 11198.89,5560.02 15224.17,10263.73 3527.76,4122.43 5811.05,8144.66 5687.53,12064.25 5674.82,-9001.48 8156.67,-25486.63 8211.54,-35422.23 57.86,-10479.67 -4387.03,-20204.73 -11226.86,-26420.52 -5359.67,-4870.7 -10847.94,-8336.84 -14205.76,-8384.52l-650.19 28.81c-3890.91,172.52 -8313.65,2084.12 -13105.41,5819.09 -4614.08,3596.51 -9559.35,8875.79 -14691.36,15912.27z"/>
    <path class="fil3 str2" d="M357318.06 306299.82c-4827.8,1872.6 -13273.1,-4780.12 -19339.84,-10360.79 -54.06,-49.7 -152.62,-0.8 -154.21,74.24 0,2499.7 -172.75,4857.09 -290.27,7205.71 -308.2,6158.07 -43.27,12614.19 1843.64,21214.17 6030.46,4357.23 10104.88,4957.8 13787.94,5187.91 2258.51,141.07 3995.71,-1.97 5320.43,-523.33 1230.77,-484.33 1936.76,-1133.72 2579.24,-1723.97 164.64,-151.21 1687.46,-7233.4 1802.72,-8040.23 629.67,-4408.2 6360.67,-13388.98 12295.24,-23664.07 9272.18,-16053.86 23212.78,-36231.33 28687.95,-58315.93 121.83,-491.55 661.21,-2585.81 -279.57,-3601.49 -166.84,814.86 -182.42,756.2 -356.34,1422.39 -1505.84,5768.11 -3528.94,11080.71 -6151.31,14638.09 -3781.1,14892.74 -10539.08,22905.99 -19042.58,32988.2 -2314.03,2743.63 -4758.1,5641.49 -7314.49,8884.85 -1353.07,1716.69 -2561.87,3380.31 -3692.82,4936.78 -3325.02,4576.01 -5986.53,8238.7 -9695.73,9677.47z"/>
    <path class="fil3 str2" d="M317149.41 311277.43c985.03,-9780.58 3225.95,-23057.16 3219.61,-29664.4 -11109.81,-7075.89 -29299.13,-16869.48 -37810.88,-19848.9 -1643.81,1189.66 -3208.78,2406.77 -4672.93,3625.43 -4495.02,3741.25 -8320.37,7128.93 -11688.76,10254.63 24.27,13229.88 719.36,23946.17 3673.35,36827.54 4853,3364.58 11382.15,5192.08 20362.65,7096.97 7868.05,1668.87 16138.85,1730.39 26240.68,2456.65 -13.94,-1699.33 209.26,-6110.43 676.28,-10747.92z"/>
   </g>
   <g>
    <path class="fil4 str2" d="M246657.68 365378.66c23.98,-760.1 325.32,-1572.62 984.66,-2420.05l557.16 -1062.38c-1670.32,-2342.24 -2175.53,-5743.71 -2400.43,-7998.37 -98.6,-988.42 1.22,-2212.52 131.78,-3383.88 -3062.2,543.37 -4538.89,8145.18 -6475.17,11644.78 -598.23,1081.2 -1146.53,2025.64 -1659.3,2908.93 -2041.13,3515.89 -3026.63,6131.27 -2541.6,8154.66 787.27,3747.82 1587.44,5673.92 3726.75,8776.77l7676.15 -16620.46z"/>
    <path class="fil4 str2" d="M246865.06 366605.2l-7487.95 16213.01c-1420.83,3076.52 -353.76,766.01 -643.14,1392.63l-1604.34 3473.65c-314.58,2503.49 3024.01,4450.9 6057.07,4727.61 2882.08,262.95 2980.69,-234.71 3739.14,-1877.25l10061.89 -20388.32c-2991.63,1167.69 -8924.75,-362.22 -10122.67,-3541.33z"/>
    <path class="fil4 str2" d="M257297 371152.78l-9282.03 20100.82c8952.72,6932.8 20673.57,12682.47 31894.52,15940.24 1992.17,-7466.12 3757.96,-14029.63 5767.92,-21491.9 -8152.02,-2649.27 -19905.68,-8015.55 -28380.41,-14549.16z"/>
    <path class="fil4 str2" d="M286233.54 386396.56l-5557.06 20703.7c-26.05,97.1 -222.12,1189.85 -213.44,1289.15 159.7,1826.37 2830.79,2559.58 4518.2,2956.94 1347.53,317.31 3042.16,326.13 4340.93,-154.59 1360.72,-503.71 890.99,-579.78 1338.01,-1754.61l5946.26 -20509.41c-1347.01,861.71 -3725.72,819.94 -5689.59,357.43 -1721.95,-405.53 -3884.02,-1401.92 -4683.31,-2888.61z"/>
    <path class="fil4 str2" d="M297495.6 388326.32l-5766.38 21489 -49.13 183.13c12650.88,2354.39 19446.98,2268.18 30006.38,-203.36 2402.4,-562.28 3571.27,-1086.87 7140.28,-2184.17l1847.17 -19122.83c-10705.22,2437.51 -23512.02,1060.22 -33178.32,-161.77z"/>
    <path class="fil4 str2" d="M331444.38 387803.93l-1932.24 20019.21c-58.67,608.65 97.05,1218.9 535.39,1641.61 1889.44,1821.91 6017.83,1092.41 7936.33,256.24 1364.47,-594.71 1937.69,-4031.19 2216.97,-6680.74l1867.39 -14500.95c-578.61,374.6 -1426.56,642.2 -2368.14,873.34 -2568.82,630.66 -6371.04,720.48 -8255.7,-1608.71z"/>
    <path class="fil4 str2" d="M342898.01 387352.88c-294.16,2820.51 -591.85,5633.32 -889.48,8446 -245.12,2316.52 -583.4,3856.94 -826.27,6174.3 3451.08,-2050.14 3725.06,-8898.37 4072.35,-12387.23 302.56,-3039.26 1650.05,-7172.24 1530.19,-9221.68 -1032.58,983.4 -2204.97,2265.18 -3521.99,3355.06 -203.26,2004.99 -155.77,1629.12 -363.77,3623.64l-1.03 9.91z"/>
   </g>
   <g>
    <path class="fil5 str2" d="M228971.03 431837.74l-2163.85 -7825.86 12547.78 -26021.04c-841.38,-278.86 -1620.95,-654.92 -2352.42,-1134.56l-12166.93 26374.67 -5865.59 2220.36 -4524.07 9966.66 8846.05 5243.66 5679.03 -8823.89z"/>
    <path class="fil5 str2" d="M281580.56 418121.61l-11629.9 43405.96c-562.23,2096.55 -269.81,1170.46 231.23,4073.62 346.91,-410.83 1124.94,-1425.02 1696.32,-3555.78l11732.83 -43288.92c-874.66,-131.92 -1225.24,-285.15 -2030.48,-634.88z"/>
    <path class="fil6 str2" d="M311592.44 378135.8c1622.5,2810.04 3974.12,4685.97 6637.74,4774.3 2224.07,74.15 3824.23,-1321.16 5424.49,-3393.21 4136.88,-5356.39 4077.7,-13753.63 763.14,-19494.1 -1622.41,-2810 -3415.22,-5058.57 -6078.89,-5146.84 -2224.06,-74.15 -4289.74,793.41 -5890.13,2865.56 -4136.93,5356.53 -4170.91,14653.77 -856.35,20394.29z"/>
    <path class="fil6 str2" d="M325584.33 358956.79c3457.04,5987.33 3403.21,15592.53 -908.54,21175.32 -720.15,932.42 -1531.31,1703.59 -2409.63,2281.22 12048.72,-3086.84 24051.02,-2618.57 36204.06,-4408.38 967.72,-361.74 3087.27,-632.58 4571.42,-2554.32 1740.01,-2252.92 3013.86,-5285.99 3127.3,-8689.48 93.67,-2811.31 -688.53,-5774.91 -2083.51,-8530.33 -1159.99,-2291.27 -2817.23,-3453.76 -5622.25,-4426.64 -3597.97,-257.46 -7373.67,-192.32 -11174.2,-38.11l-231.89 2299.58c-141.4,1402.87 -4751.3,1130.76 -6168.34,988.46 -1416.57,-142.24 -5989.91,-798.9 -5848.83,-2198.44l81.51 -808.48 -14068.62 443.64c1781.83,831.43 3340.27,2402.83 4531.52,4465.96z"/>
   </g>
   <g>
    <path class="fil7 str2" d="M244359.37 397494.22l1800.13 -3898.24c-3035.74,1176.23 -8606.22,-1348.56 -9612.89,-4649.09l-1318.96 2855.76c-771.87,1671.5 1127.34,3450.56 2348.91,4349.34 1627.33,1197.3 2446.84,1534.6 4506.88,1659.62 1234.99,75.05 2225.9,-89.64 2275.93,-317.39z"/>
    <path class="fil7 str2" d="M247723.06 364747.43c48.24,2887.86 5017.31,5385.39 8146.63,4960.11 396.05,-53.83 759.11,-162.62 1086.22,-307.17 504.37,-222.87 767.79,-847.43 812.52,-944.35l7498.93 -16239.56c-1563.42,342.78 -3770.12,-118.08 -5433.92,-880.29 -1700.45,-779.01 -3517.34,-2193.33 -4267.58,-3569.96l-5828 12618.79c-809.52,1752.69 -580.21,1256.35 -762.73,1651.46l-1252.07 2710.97z"/>
    <path class="fil7 str2" d="M291548.77 366593.7l-4681.98 17443.54c-27.6,102.73 -221.89,1273.52 -203.07,1403.38 252.91,1747.81 2852.05,2459.99 4505.71,2849.38 1497.99,352.73 3024.9,278.72 4158.52,-98.37 752.44,-250.33 1339.6,-624.7 1662.3,-1073.97 61.57,-85.74 375.07,-1017.89 384.6,-1053.37l4310.99 -16065.88c-1481.28,601.52 -3887.11,339.13 -5651.81,-128.73 -1752.46,-464.62 -3492.38,-2022.54 -4485.26,-3275.98z"/>
    <path class="fil7 str2" d="M290417.22 411993.53c-1486.73,1017.99 -3894.96,732.97 -5859.3,270.37 -1722.37,-405.62 -3713.38,-1324.3 -4512.8,-2811.4l-1081.34 4036.92c1475.79,3751.15 4126.6,4436.02 7786.71,4711.03 1253.53,94.19 2121.43,-445.09 2188.21,-697.11l1478.52 -5509.81z"/>
    <path class="fil7 str2" d="M329323.71 409721.97c-496.35,4946.03 -1043.47,9969.81 -1641.46,15274.9 -1007.15,8934.98 -2678.69,20266.68 -2839.57,24709.65 -43.83,1211.15 -292.57,1811.54 780.28,2163.38 1152.48,377.99 2766.77,702.75 4570.05,885.12 0.14,-1.45 7.18,0.61 8.87,0.89 1807.04,182.14 3457.18,186.37 4664.11,45.76 1045.34,-121.69 1706.04,-303.08 1738.75,-515.68 195.37,-3786.07 514.13,-9371.48 857.1,-14712.38 268.59,-4183.95 551.77,-8218.95 802.01,-11133.98 475.83,-5542.99 1012.96,-11096.53 1578.06,-16654.72 -111.18,123.33 -232.64,239.68 -363.11,347.38 -678.15,559.84 -1198.48,622.87 -1995.89,805.86 -2548.5,584.81 -6412.29,818.9 -8159.2,-1216.18z"/>
    <path class="fil7 str2" d="M331900.55 387247.19c1187.36,1585 4659.98,1978.61 6897.8,1437.83 300.5,-72.61 2493.82,-710.31 2800.89,-1163.61 467.43,-1447.59 175.05,-3519.88 490.15,-6630.33l-10072.92 1132.82c-133.98,1331.43 -215.27,2648.27 -391.54,3936.63 -66.64,487.05 64.67,1005.07 275.62,1286.66z"/>
    <path class="fil7 str2" d="M337066.59 355602.86c1751.47,574.39 4473.09,916.94 6612.36,871.7 425.94,-8.96 2318.81,38.02 2400.33,-819.09l517.04 -5434.85c-2220.68,348.37 -8329.7,-200.59 -10239.8,-1427.22l-618.18 6130.98c-15.76,156.7 493.02,404.59 1328.25,678.48z"/>
    <path class="fil7 str2" d="M337766.71 348659.08c980.67,321.62 2355.23,597.99 3890.87,752.82 1.12,0 6.43,-0.84 6.28,0.66 1533.85,154.21 2934.09,157.69 3958.22,38.39 1868.84,-217.62 1905.87,-486.87 108.69,-1076.23 -978.46,-320.91 -2349.13,-596.87 -3880.68,-751.88 -1544.97,-154.5 -2939.25,-160.65 -3974.6,-40.08 -1869.17,217.62 -1906.2,486.82 -108.78,1076.32z"/>
   </g>
   <g>
    <path class="fil3 str2" d="M255967.87 346894.23l0 0zm9705.4 4444.61l2519.02 -5498.11c-1564.02,302.47 -3835.3,-223.16 -5491.97,-982.18 -1643.48,-752.96 -3453.89,-2083.46 -4220.65,-3446.81l-2511.24 5482.78c-89.64,193.68 278.58,793.37 925.48,1494.66 1653.71,1792.72 4179.59,3021.61 6667.69,3215.53 1151.41,89.73 2001.75,-29.85 2111.67,-265.87z"/>
    <path class="fil3 str2" d="M291797.37 365666.02l0 0zm10317.66 2734.16l0 0zm-8772.22 -8563.1l-1545.07 5829.03c-55.19,205.56 406.24,733.21 1165.35,1316.65l-0.52 0.66c1931.22,1483.77 4637.5,2268.23 7119.07,2037.65 1157.04,-107.52 1965.48,-370.85 2033.39,-620.89l1549.8 -5845.08c-1490.11,563.22 -3816.25,430.49 -5578.18,-36.66 -1744.99,-462.69 -3756.27,-1468.38 -4743.84,-2681.36z"/>
    <path class="fil3 str2" d="M295008.06 360379.65c1941.87,1319.56 3773.31,1874.71 6107.2,1600.12 4257.91,-500.95 -877.62,-2177.65 -2134.48,-2560.56 -1.31,0.28 -3.85,-1.55 -5.86,-1.55 -1494.62,-396.19 -2877.63,-621.51 -3905.33,-665.49 -879.11,-37.54 -1443.08,14.98 -1483.26,166.52 -62.56,236.01 480.2,821.2 1421.73,1460.96z"/>
    <path class="fil3 str2" d="M263724.92 344525.34c724.24,273.98 3836.29,922.95 4171.8,190.49 270.89,-591.33 -3316.95,-2543.43 -3793.68,-2761.84 -1238.51,-601.57 -2883.86,-1132.83 -3738.34,-1317.78 -859.82,-186.13 -1424.31,-230.15 -1489.4,-88 -101.42,221.42 334.66,889.96 1154.31,1680.46 1021.93,985.56 2315.58,1774.75 3695.31,2296.67z"/>
   </g>
   <path class="fil8 str2" d="M372126.18 54325.3c-2298.73,-580.72 -4022.6,-2996.93 -4022.6,-5889.48 0,-3326 2279.35,-6022.29 5091.04,-6022.29 1380.71,0 2633.02,650.18 3550.15,1705.85 1408.59,40.08 2813.14,1038.35 3996.6,2692.06 2794.75,3905.09 3912.04,10770.13 2500.4,15360.04 -1465,4763.41 -5182.32,5356.1 -8075.16,1313.97 -1687.68,-2358.19 -2763.67,-5795.89 -3040.43,-9160.15zm-11917.02 2310.61c2054.97,12033.18 10907.72,20436.71 19773.1,18769.85 8865.43,-1666.89 14386.35,-12773.04 12331.38,-24806.18 -2055.02,-12033.18 -10907.77,-20436.71 -19773.15,-18769.86 -8865.38,1666.9 -14386.35,12773.01 -12331.33,24806.19z"/>
   <g>
    <path class="fil9 str2" d="M323969.67 154326.79c-7310.69,1163.42 -17319.5,2756.31 -23141.21,12808.34l-607.76 -351.98c700.03,-1208.71 1125.17,-1879.97 1929.2,-2863.69 -4481.92,585.23 -8381.43,2792.87 -11703.87,6089.82 -4233.51,4201.04 -6978.93,9468.31 -6875.64,12986.21l-533.89 1598.76c2625,1661.78 5174.16,2560.61 7803.19,4132.28 -1297.83,-3979.29 -1849.55,-8542.58 -654.12,-12737.14l189.5 -664.92c1833.13,2351.38 3852.44,4751.63 6256.44,7058.1 1661.73,1594.3 3307.56,2922.69 4653.17,3564.56 736.49,351.33 1390.14,763.15 1918.87,1233.87l2314.92 -733.4c-1630.67,-5073.34 -2830.08,-12110.8 -1409.2,-17096.52l189.51 -664.92c2216.65,2843.36 8226.69,10353.47 11654.63,11988.54 414.08,197.49 806.98,468.52 1166.52,793.94 1105.61,-400.98 3909.83,-1906.53 4821.94,-2410.01 -1302.67,-1504 -2916.39,-3961.97 -4297.34,-6790.18 -2172.58,-4449.49 -3819.35,-9846.85 -2851.07,-13917.46l222.04 -861.09 437.63 561.39c709.36,909.94 4025.28,3464.26 7968.43,5892.9 2723.13,1677.22 5737.7,3285.88 8387.06,4237.6 354.09,-656.43 699.64,-1320.69 1036.61,-1992.18 -1621.7,-1115.41 -4134.96,-6621.37 -6535.95,-12247.8 -747.66,131.64 -1527.14,255.68 -2339.61,384.98z"/>
    <path class="fil9 str2" d="M322428.87 179591.25c-984.71,547.83 -3466.09,1880.02 -4779.13,2423.85 631.78,739.97 1107.9,1648.55 1343.78,2587.78 1532.53,-1314.3 2969,-2724.3 4332.86,-4230.97 -263.33,-175.48 -566.27,-439.8 -897.51,-780.66z"/>
    <path class="fil9 str2" d="M307641.96 191504.2c-602.03,-1011.37 -1275.87,-2547.94 -1903.01,-4390.17l-1999.17 617.05c1360.58,1628.93 1017.56,3448.73 -253.8,5117.55 1425.48,-368.78 2810.7,-818.76 4155.98,-1344.43z"/>
   </g>
   <path class="fil10 str1" d="M282869.15 183016.1c-109.35,-3696.06 2718.62,-9174.7 7081.95,-13504.57 3605.39,-3577.7 8266.49,-6387.88 13195.38,-6785.67 6033.51,-6754.56 14493.92,-8920.85 20837.36,-9930.25 756.15,-120.33 1206.97,-167.59 1618.75,-518.87 -1249.21,-2941.54 -2219.23,-5303.96 -3401.05,-7953.93l523.61 -16.28c2565.49,-79.74 9757.68,2620.3 14834.03,4375.24 404.4,-7250.9 -170.03,-16009.55 -1575.2,-24251.22 -2011.04,-11795.28 -5710.67,-22498.39 -10653.22,-26126.87 1417.13,2178.78 4821.38,8167.33 6498.13,15136.5 1060.74,4408.9 1432.62,9214.55 182.37,13711.67l-185.19 666.19c-4061.6,-5147.36 -7475.65,-8630.54 -10646.6,-11843.11 -1485.69,-1505.17 -2702.57,-2738.05 -3516.69,-3708.78 -592.41,1306.19 -1200.87,2552.77 -1826.27,3744.73 4471.64,6335.18 8803.33,16382.33 4351.92,25704.91l-334.39 700.35 -306.36 -712.74c-2924.28,-6803.69 -6884.61,-10321.46 -9609.38,-12741.74 -697.11,-619.26 -1315.05,-1168.12 -1821.82,-1687.79 -862.26,960.07 -1750.1,1872.51 -2664.79,2743.83 941.06,1571.63 2370.02,5830.06 3538.42,10681.24 1010.66,4196.53 1833.31,8850.64 1984.01,12604.05l29.1 723.67c-4565.98,-3314.22 -15528.52,-11345.17 -18406.19,-14801.17 -460.73,257.37 -926.42,512.67 -1397.24,766.34 962.33,1680.03 2151.7,5798.24 3423.02,10200.56 1098.7,3804.8 2025.31,6990.3 3192.11,10169.27l-582.6 -84.57c-8962.67,-1300.93 -14511.66,-9388.85 -17169.37,-13262.68 -320.26,-466.83 -597.86,-871.42 -831.29,-1190.83l-1936.05 883.52c1222.79,3665.18 3666.63,11605.97 7763.3,17080.15l458.61 612.83 -762.49 -51.86c-10269.84,-698.05 -15248.76,-8151.32 -17735.26,-11873.71 -303.18,-453.87 -568.48,-850.81 -800.88,-1170.88l-899.91 332.65c135.92,471.04 281.54,1113.06 457.11,1887.61 762.96,3365.15 2104.39,9281.47 5548.99,13884.33l458.61 612.83 -762.49 -51.86c-9768.33,-663.94 -13525.3,-7256.39 -15701.78,-11075.6 -396.75,-696.27 -739.45,-1297.5 -1051.07,-1740.77 -288.11,76.83 -19.94,8.03 -307.73,82.18 227.34,4280.87 2165.55,9667.99 3709.39,11730.76l464.62 620.8c-1829.14,-141.92 -1975.99,-6.57 -3739.99,-523.52 3746.7,3308.13 4974.51,5952.98 6716.36,8541.09 3113.55,4626.32 4865.3,9044.09 9331.69,12714.9 -1727.63,-3215.25 -2543.9,-6825.61 -2739.75,-10601.13l-57.68 -1112.03c4153.22,5327.53 5450.82,6258.17 8479.37,7426 479.36,184.87 982.18,378.74 1539.39,629.54 -728.37,-1927.18 -1240.58,-3820.71 -1324.54,-5439.36l-57.67 -1111.99 684.67 878.22c1883.44,2415.92 3693.15,4009.19 5464.66,5209.5l258.5 -735.23 179.51 -446.45z"/>
   <g>
    <path class="fil11 str2" d="M256646.63 166749.45c-2398.51,-3409.31 -3258.38,-7186.18 -4138.05,-11143.23 -3764.91,943.08 -7398.5,1628.56 -11204.01,2030.43 3366,4120.83 8902.88,8338.95 15342.06,9112.8z"/>
    <path class="fil11 str2" d="M255929.9 156547.15c2050.19,3597.64 5549.27,9735.43 14383.16,10655.14 -3202.11,-4617.98 -5070.58,-9883.41 -5811.52,-13151.83 -167.73,-740.11 -446.83,-1467.21 -572.84,-1912.21 -3205.77,1156.19 -5717.2,1937.69 -8943.05,2820.84 288.39,437.3 596.16,977.2 944.25,1588.06z"/>
    <path class="fil11 str2" d="M267602.74 152084.04c2360.03,3532.98 7025.45,10514.64 16441.05,11496.62 -3873.79,-5513.23 -6877.47,-12776.33 -8038.6,-16292.27 -3163.43,1425.16 -5785.94,2502.65 -9105.9,3759.46 209.18,296.23 442.61,645.68 703.45,1036.19z"/>
    <path class="fil11 str2" d="M279882.73 145525c4424.34,6148.82 8754.16,12479.54 16865.35,13959.61 -932.43,-2633.44 -2197.41,-5721.14 -3109.46,-8879.65 -1270.38,-4399.13 -2797.47,-8385.88 -3707,-9939.91 -3308.92,1756.54 -6216.35,3099.71 -10048.89,4859.95z"/>
    <path class="fil11 str2" d="M294033.12 138406.63c2761.1,3230.22 11887.79,11051.62 16202.58,14193.66 -217.85,-3570.05 -991.13,-7850.73 -1927.6,-11739.07 -1126.34,-4676.77 -2480.12,-8767.71 -3380.07,-10351.54 -3536.12,3272.46 -6622.96,5468.32 -10894.91,7896.95z"/>
    <path class="fil11 str2" d="M309188.34 126039.96c2836.75,2929.91 9280.86,8996.5 10685.46,14662.97 3701.69,-8669.21 -235.08,-17981.98 -4407.48,-23996.67 -2096.18,3882.09 -3775.47,6465.69 -6277.98,9333.7z"/>
    <path class="fil11 str2" d="M318437.76 110510.84c782.01,980.48 2213.6,3177.04 3831.97,4816.63 2672.73,2707.78 5629.38,6456.17 9239.56,10962.07 1000.29,-4172.93 620.8,-8600.45 -362.4,-12687.07 -1694.97,-7044.78 -5176.6,-13064.87 -6499.3,-15060.8 -2800.99,3528.65 -4151.11,7307.5 -6209.83,11969.17z"/>
    <path class="fil11 str2" d="M337450.48 150300.94c-4629.89,-1601.71 -11428.98,-5042.84 -14168.68,-5275.14 2506.59,5693.63 7731.01,19155.81 9867.59,20551.03 795.01,-1619.26 1540.94,-3279.12 2238.24,-4971.69 1132.12,-2748.05 1763.81,-5763 2062.85,-10304.2z"/>
    <path class="fil11 str2" d="M330926.03 169769.89c-4761.68,-1735.23 -11917.03,-7307.92 -15547.43,-10777.63 -693.64,3830.84 869.31,8812.67 2898.37,12968.23 1990.73,4077 4383.7,7329.04 5513.61,7891.28 2893.02,-3283.26 4908.19,-6047.17 7135.45,-10081.88z"/>
    <path class="fil11 str2" d="M315123.16 181651.43c-3290.34,-1569.42 -8276.07,-8598.05 -10511.49,-11427.01 -660.23,2891.66 -500.85,6413.32 63.92,9791.75 794.87,4754.77 2384.71,9202.58 3625.57,11222.91 3661.37,-1512.68 6085.04,-2838.44 9148.65,-5371.78 -271.68,-1531.64 -932.1,-3550.71 -2326.65,-4215.87z"/>
    <path class="fil11 str2" d="M300702.73 186985.95c-3310.71,-1579.23 -7665.44,-7184.4 -10016.74,-10128.76 -651.68,2747.3 -551.3,5590.29 -60.45,8218.2 722.13,3866.32 2284.24,7259.49 3544.57,9208.07 2335.24,-183.83 5097.84,-473.49 7596.27,-1034.27 2571.63,-2733.41 2193.98,-4709.3 -1063.65,-6263.24z"/>
    <path class="fil11 str2" d="M291504.66 190557.83c-1447.73,-937.73 -3520.96,-2098.24 -4958.55,-2796.06 -3146.5,-1527.37 -5970.95,-3375.19 -9377.4,-7410.94 710.16,4398.95 3988.53,10401.11 6107.05,13608.33 2926.15,479.59 6260.94,633.48 10101.12,381.5 -712.74,-1159.43 -1198.71,-1955.66 -1872.22,-3782.83z"/>
    <path class="fil11 str2" d="M282329.68 193790.16c-1264.47,-1981.47 -2664.28,-4325.35 -3903.22,-7252.96l-158.15 -379.25c-810.55,-406.29 -2050.05,-814.73 -2707.08,-1068.01 -2135.7,-823.36 -3504.96,-1875.09 -7079.42,-6286.99 163.88,1883.11 491.6,3657.01 990.57,5316.45 584.34,1943.18 1403.29,3727.36 2468.72,5344 2788.13,1972.84 6143.33,3504.2 10388.58,4326.76z"/>
    <path class="fil11 str2" d="M347098.91 58546.05c3250.92,19035.82 17255.48,32329.8 31280.04,29692.88 14024.61,-2636.92 22758.44,-20206.23 19507.57,-39242.05 -3250.92,-19035.81 -17255.48,-32329.8 -31280.04,-29692.88 -14024.61,2636.92 -22758.44,20206.23 -19507.57,39242.05zm32835.58 18129.34c-9736.1,1744.62 -19458.25,-7050.88 -21715.07,-19645.22 -2256.82,-12594.38 3806.35,-24218.46 13542.44,-25963.08 9736.04,-1744.61 19458.24,7050.88 21715.06,19645.22 2256.78,12594.38 -3806.34,24218.46 -13542.43,25963.08z"/>
   </g>
   <path class="fil12" d="M237129.63 387684.49c-314.58,2503.49 3024.01,4450.9 6057.07,4727.61 2882.08,262.95 2980.69,-234.71 3739.14,-1877.25l10061.89 -20388.32c-2991.63,1167.69 -8924.75,-362.22 -10122.67,-3541.33l-7487.95 16213.01c-1420.83,3076.52 -353.76,766.01 -643.14,1392.63l-1604.34 3473.65zm4953.81 10127.12c1234.99,75.05 2225.9,-89.64 2275.93,-317.39l1800.13 -3898.24c-3035.74,1176.23 -8606.22,-1348.56 -9612.89,-4649.09l-1318.96 2855.76c-771.87,1671.5 1127.34,3450.56 2348.91,4349.34 1627.33,1197.3 2446.84,1534.6 4506.88,1659.62zm-2047.37 380l-11514.02 26309.81 2009.63 7625.93 -6726.91 11299.79c-3410.16,-2596.51 -6820.36,-5192.88 -10230.09,-7789.91l4875.06 -10739.9 5868.12 -2221.29 12101.42 -26232.61c-433.17,-330.44 -813.03,-676.65 -1135.68,-1017.7 -1031.64,-1090.58 -1481.85,-2198.63 -1266.58,-2668.55l2425.07 -5259.61c100.06,-647.32 397.6,-1327.4 937.5,-2029.87l995.31 -2155.03c-2033.2,-2866.6 -2823.94,-4603.75 -3789.08,-7683.46 -4853.94,8338.86 -18171.58,9760.77 -29330.2,24921.02 1081.49,240.52 7992.37,2870.02 9902.33,5583.82 1084.57,1540.98 2060.46,-396.53 4120.92,-3770.82l599.5 365.68c-687.78,1126.3 -1190.74,2512.22 -1768.69,4104.78 -511.08,1408.36 -1080.03,2975.48 -1885.88,4677.16l-0.61 77.81 -36.05 -0.33c-1466.26,3076.1 -3712.71,6589.08 -7793.09,10399.42l-478.51 -514.28c3863.04,-3607.35 6803.74,-7700.97 4613.84,-8659.72 -23514.64,-197.06 -31072.05,1521.6 -42815.33,4843.38 -3859.33,1091.67 -7859.84,2223.41 -12515.49,3298.23l-156.75 -684.73c4635.29,-1070.12 8629.4,-2200.04 12482.54,-3289.96 3795.55,-1073.6 4669.18,-1459.47 8674.84,-2362.94 -14353.74,-10059.68 -27210.32,-30581.29 -34537.39,-52014.11 -7390.34,-21617.73 -6538.77,-45309.49 4758.81,-60826.41 10516.79,-14443.18 16442.5,-39935.92 12752.17,-69292.69 -2995.9,-23832.55 -12334.48,-50200.69 -30701.16,-75261.9 -5018.29,9759.89 3353.51,13996.31 -6879.3,33357.13 6129.35,6032.76 6185.76,5557.39 7989.93,14399.91 1114.47,-1409.1 516.57,-3259.36 1010.14,-7072l698.43 -60.54c881.56,9809.45 845.79,20076.8 -474.66,29820.26 -1335.99,9857.78 -3675.27,19519.02 -8323.18,28354.64 -4652.99,8845.38 -10436.02,17601.51 -21013.59,24144.08 -8845.85,5471.41 -23142.43,7270.47 -33505.94,5045.14 8274.66,8037.32 25097.81,20375.42 37849.65,20537.28 3069.43,-6646.38 7446.84,-11343.71 11643.56,-16785.89l555.47 428.95c-12047.02,15622.19 -19290.46,37096.17 -22490.83,59606.9 -3625.67,25501.8 -322.09,51826.91 5326.77,72980.4 5947.39,22271.48 17553.59,36864.65 38556.57,48896.24 15149.03,8678.17 30737.52,14351.2 48548.77,15767.21 29282.61,2327.97 47189.73,3532.27 76359.33,-1156.39 25759.92,-4140.59 44900.68,-18322.6 56875.43,-41152.7 961.76,-6427.83 3038.18,-12963.45 3785.65,-19416.15 637.27,-5501.5 1182.57,-10677.39 1691.25,-15760.96 -9264.57,2951.59 -19128.03,3793.91 -28837.14,2755.13 -2716.51,-290.64 -5509.71,-704.34 -8340.36,-1232.74l-1879.68 7004.94c-135.21,502.16 -1252.5,1046 -2790.43,1215.42 -614.89,67.77 -1305.06,84.29 -2030.71,23.89l-11618.5 43366.26c-647.93,2416.25 -715.74,2496.08 -3162.5,5376.24l-580.25 682.89 -152.76 -879.16c-630.71,-3629.6 -650.05,-3741.11 -11.27,-6122.96l11663.84 -43532.44c-660.42,-344.76 -1227.63,-735.27 -1682.63,-1121 -949.22,-804.72 -1430.31,-1651.69 -1310.17,-2104.86 593.72,-2239.13 1189.23,-4477.93 1786.24,-6716.45 -11269,-3270.91 -23263.84,-8468.38 -32272.07,-15408.65l-2459.33 5325.84 -0.57 -0.29c-217.94,472.04 -1410.79,818.44 -2954.54,724.67 -617.62,-37.55 -1300.84,-138.45 -2006.17,-321.25zm-3033.53 -1335.33l-12166.93 26374.67 -5865.59 2220.36 -4524.07 9966.66 8846.05 5243.66 5679.03 -8823.89 -2163.85 -7825.86 12547.78 -26021.04c-841.38,-278.86 -1620.95,-654.92 -2352.42,-1134.56zm10720.52 -32108.85c48.24,2887.86 5017.31,5385.39 8146.63,4960.11 396.05,-53.83 759.11,-162.62 1086.22,-307.17 504.37,-222.87 767.79,-847.43 812.52,-944.35l7498.93 -16239.56c-1563.42,342.78 -3770.12,-118.08 -5433.92,-880.29 -1700.45,-779.01 -3517.34,-2193.33 -4267.58,-3569.96l-5828 12618.79c-809.52,1752.69 -580.21,1256.35 -762.73,1651.46l-1252.07 2710.97zm-1065.38 631.23c23.98,-760.1 325.32,-1572.62 984.66,-2420.05l557.16 -1062.38c-1670.32,-2342.24 -2175.53,-5743.71 -2400.43,-7998.37 -98.6,-988.42 1.22,-2212.52 131.78,-3383.88 -3062.2,543.37 -4538.89,8145.18 -6475.17,11644.78 -598.23,1081.2 -1146.53,2025.64 -1659.3,2908.93 -2041.13,3515.89 -3026.63,6131.27 -2541.6,8154.66 787.27,3747.82 1587.44,5673.92 3726.75,8776.77l7676.15 -16620.46zm91166.33 -69365.39c0,2499.7 -172.75,4857.09 -290.27,7205.71 -308.2,6158.07 -43.27,12614.19 1843.64,21214.17 6030.46,4357.23 10104.88,4957.8 13787.94,5187.91 2258.51,141.07 3995.71,-1.97 5320.43,-523.33 1230.77,-484.33 1936.76,-1133.72 2579.24,-1723.97 164.64,-151.21 1687.46,-7233.4 1802.72,-8040.23 629.67,-4408.2 6360.67,-13388.98 12295.24,-23664.07 9272.18,-16053.86 23212.78,-36231.33 28687.95,-58315.93 121.83,-491.55 661.21,-2585.81 -279.57,-3601.49 -166.84,814.86 -182.42,756.2 -356.34,1422.39 -1505.84,5768.11 -3528.94,11080.71 -6151.31,14638.09 -3781.1,14892.74 -10539.08,22905.99 -19042.58,32988.2 -2314.03,2743.63 -4758.1,5641.49 -7314.49,8884.85 -1353.07,1716.69 -2561.87,3380.31 -3692.82,4936.78 -3325.02,4576.01 -5986.53,8238.7 -9695.73,9677.47 -4827.8,1872.6 -13273.1,-4780.12 -19339.84,-10360.79 -54.06,-49.7 -152.62,-0.8 -154.21,74.24zm-769.34 -928.76c-1936.05,-1808.87 -3561.6,-3436.3 -4644.44,-4520.17l-269.3 -269.53 -0.7 0.71c-2194.31,-2194.59 -6201.24,-5102.3 -11071.33,-8234.58 -53.69,6810.59 -1418.4,20360.31 -2382.92,29937.11 -66.04,655.72 -449.42,10430.53 -1058.3,10932.88 -2354.53,1940.98 -24279.47,-1491.89 -28099.76,-2302.25 -9142.51,-1939.24 -16422.18,-4993.04 -21350.55,-8440.84 -137.89,-96.49 -103.63,-46.27 -141.64,-206.21 -1641.84,-6905.07 -2489.27,-29527.78 -2539.86,-35685 -7449.24,6962.74 -10426.64,10399.98 -16760.84,16755.15 1710.55,9600.51 1547.18,21620.31 1131.75,30687.82 -305.48,6672.86 -2261.66,17219.12 -2979.09,24601.52 -168.06,1729.51 -142.25,3679.68 13.37,5239.67 202.7,2032.02 726.35,4395.28 2191.64,6525.49l6237.75 -13506.02 0.42 0.19 2906.44 -6343.68c222.41,-485.6 1075.95,-567.77 2275.88,-308.01 2267.71,490.85 5597.43,2016.3 7451.06,3413.91 980.35,739.16 1475.61,1439 1253.39,1923.99l-2907.47 6345.93 0.56 0.28 -8108.1 17558.66c8431.27,6523.66 19940.93,11735.21 28050.77,14372.04 1674.12,-6214.85 3196.94,-11863.72 4865.16,-18078.99l0.28 0.1 1788.31 -6744.71c357.14,-1346.87 4887.54,-383.42 6248.12,-1.08 1542.91,409.1 2907.05,918.91 3864.97,1412.3 1091.89,562.38 1698.9,1167.88 1562.28,1683.09l-1789.01 6747.24 0.38 0.09 -4743.75 17678.15c9628.01,1216.69 22683.16,2965.53 32862.42,-225.32 141.08,-1438.53 242.35,-2456.51 390.51,-3930.34l-11010.92 1238.33c-672.76,199.22 -1370.06,292.71 -2083.93,268.91 -2923.43,-96.86 -5481.93,-2107.25 -7223.54,-5123.56 -3457.04,-5987.33 -3403.12,-15592.48 908.63,-21175.22 1737.53,-2249.69 4004.26,-3561.5 6467.57,-3479.33 140.85,4.65 280.93,13.75 420.04,27.32l16411.52 -517.51 547.59 -5431.15c140.28,-1390.8 4756.71,-1146.72 6169.1,-988.46 1589.69,160.31 3016.82,447.91 4038.84,783.09 1167.41,382.82 1862.79,884.98 1809.29,1415.35l-397.18 3938.97 6767.37 -274.69c3407.48,-10383.88 5928.57,-17319.17 7443.41,-22529.08 260.89,-897.37 691.63,-2392.03 -244.41,-1500.67 -490.34,466.96 -1267.05,940.83 -2274.52,1337.3 -1405.12,553.04 -3305.92,935.71 -5679.46,787.36 -3819.44,-238.69 -8878.05,-1853.31 -15082.58,-6360.43 -133.23,-96.82 -100.05,-46.08 -136.1,-208.98 -1940.08,-8764.95 -1633.43,-14891.05 -1321.29,-21125.71 34.21,-683.22 326.31,-8004.1 222.17,-8101.43zm-79757.67 76068.27l-9282.03 20100.82c8952.72,6932.8 20673.57,12682.47 31894.52,15940.24 1992.17,-7466.12 3757.96,-14029.63 5767.92,-21491.9 -8152.02,-2649.27 -19905.68,-8015.55 -28380.41,-14549.16zm-1329.13 -24258.55l0.56 0.29c-89.64,193.68 278.58,793.37 925.48,1494.66 1653.71,1792.72 4179.59,3021.61 6667.69,3215.53 1151.41,89.73 2001.75,-29.85 2111.15,-266.1l0.52 0.23 2519.02 -5498.11c-1564.02,302.47 -3835.3,-223.16 -5491.97,-982.18 -1643.48,-752.96 -3453.89,-2083.46 -4220.65,-3446.81l-2511.8 5482.49zm8135.17 -4940.24c-1238.51,-601.57 -2883.86,-1132.83 -3738.34,-1317.78 -859.82,-186.13 -1424.31,-230.15 -1489.4,-88 -101.42,221.42 334.66,889.96 1154.31,1680.46 1021.93,985.56 2315.58,1774.75 3695.31,2296.67 724.24,273.98 3836.29,922.95 4171.8,190.49 270.89,-591.33 -3316.95,-2543.43 -3793.68,-2761.84zm19508 76802.5c-874.66,-131.92 -1225.24,-285.15 -2030.48,-634.88l-11629.9 43405.96c-562.23,2096.55 -269.81,1170.46 231.23,4073.62 346.91,-410.83 1124.94,-1425.02 1696.32,-3555.78l11732.83 -43288.92zm3139.45 -556.04c1253.53,94.19 2121.43,-445.09 2188.21,-697.11l1478.52 -5509.81c-1486.73,1017.99 -3894.96,732.97 -5859.3,270.37 -1722.37,-405.62 -3713.38,-1324.3 -4512.8,-2811.4l-1081.34 4036.92c1475.79,3751.15 4126.6,4436.02 7786.71,4711.03zm-6287.45 -9811.04c159.7,1826.37 2830.79,2559.58 4518.2,2956.94 1347.53,317.31 3042.16,326.13 4340.93,-154.59 1360.72,-503.71 890.99,-579.78 1338.01,-1754.61l5946.26 -20509.41c-1347.01,861.71 -3725.72,819.94 -5689.59,357.43 -1721.95,-405.53 -3884.02,-1401.92 -4683.31,-2888.61l-5557.06 20703.7c-26.05,97.1 -222.12,1189.85 -213.44,1289.15zm11266.18 1425.91l-49.13 183.13c12650.88,2354.39 19446.98,2268.18 30006.38,-203.36 2402.4,-562.28 3571.27,-1086.87 7140.28,-2184.17l1847.17 -19122.83c-10705.22,2437.51 -23512.02,1060.22 -33178.32,-161.77l-5766.38 21489zm-5065.5 -24374.7c252.91,1747.81 2852.05,2459.99 4505.71,2849.38 1497.99,352.73 3024.9,278.72 4158.52,-98.37 752.44,-250.33 1339.6,-624.7 1662.3,-1073.97 61.57,-85.74 375.07,-1017.89 384.6,-1053.37l4310.99 -16065.88c-1481.28,601.52 -3887.11,339.13 -5651.81,-128.73 -1752.46,-464.62 -3492.38,-2022.54 -4485.26,-3275.98l-4681.98 17443.54c-27.6,102.73 -221.89,1273.52 -203.07,1403.38zm5133.65 -19774.6l0.37 0.09c-55.19,205.56 406.24,733.21 1165.35,1316.65l-0.52 0.66c1931.22,1483.77 4637.5,2268.23 7119.07,2037.65 1157.04,-107.52 1965.48,-370.85 2033.06,-620.99l0.33 0.1 1549.8 -5845.08c-1490.11,563.22 -3816.25,430.49 -5578.18,-36.66 -1744.99,-462.69 -3756.27,-1468.38 -4743.84,-2681.36l-1545.44 5828.94zm7183.41 -6246.81c-1.31,0.28 -3.85,-1.55 -5.86,-1.55 -1494.62,-396.19 -2877.63,-621.51 -3905.33,-665.49 -879.11,-37.54 -1443.08,14.98 -1483.26,166.52 -62.56,236.01 480.2,821.2 1421.73,1460.96 1941.87,1319.56 3773.31,1874.71 6107.2,1600.12 4257.91,-500.95 -877.62,-2177.65 -2134.48,-2560.56zm31066.75 50045.54c1889.44,1821.91 6017.83,1092.41 7936.33,256.24 1364.47,-594.71 1937.69,-4031.19 2216.97,-6680.74l1867.39 -14500.95c-578.61,374.6 -1426.56,642.2 -2368.14,873.34 -2568.82,630.66 -6371.04,720.48 -8255.7,-1608.71l-1932.24 20019.21c-58.67,608.65 97.05,1218.9 535.39,1641.61zm9794.38 320.16c-111.18,123.33 -232.64,239.68 -363.11,347.38 -678.15,559.84 -1198.48,622.87 -1995.89,805.86 -2548.5,584.81 -6412.29,818.9 -8159.2,-1216.18 -496.35,4946.03 -1043.47,9969.81 -1641.46,15274.9 -1007.15,8934.98 -2678.69,20266.68 -2839.57,24709.65 -43.83,1211.15 -292.57,1811.54 780.28,2163.38 1152.48,377.99 2766.77,702.75 4570.05,885.12 0.14,-1.45 7.18,0.61 8.87,0.89 1807.04,182.14 3457.18,186.37 4664.11,45.76 1045.34,-121.69 1706.04,-303.08 1738.75,-515.68 195.37,-3786.07 514.13,-9371.48 857.1,-14712.38 268.59,-4183.95 551.77,-8218.95 802.01,-11133.98 475.83,-5542.99 1012.96,-11096.53 1578.06,-16654.72zm-7941.36 -22537.72c1187.36,1585 4659.98,1978.61 6897.8,1437.83 300.5,-72.61 2493.82,-710.31 2800.89,-1163.61 467.43,-1447.59 175.05,-3519.88 490.15,-6630.33l-10072.92 1132.82c-133.98,1331.43 -215.27,2648.27 -391.54,3936.63 -66.64,487.05 64.67,1005.07 275.62,1286.66zm10998.49 95.78l-1.03 9.91c-294.16,2820.51 -591.85,5633.32 -889.48,8446 -245.12,2316.52 -583.4,3856.94 -826.27,6174.3 3451.08,-2050.14 3725.06,-8898.37 4072.35,-12387.23 302.56,-3039.26 1650.05,-7172.24 1530.19,-9221.68 -1032.58,983.4 -2204.97,2265.18 -3521.99,3355.06 -203.26,2004.99 -155.77,1629.12 -363.77,3623.64zm-1714.48 16273.97c-795.06,7606.36 -1562.1,15223.14 -2219.47,22880.42 -244.27,2845.99 -516.57,6700.35 -775.21,10704.13 2237.3,904.69 4255.81,1540.42 5854.05,2080.27 2650.9,895.4 3932.21,1557.79 8234.39,1606.97 1185.1,-20561.55 -2409.12,-28269.42 -6430.36,-34701.04 -960.63,-1536.48 -1819.33,-2909.92 -2462.19,-4239.24 -681.54,781.07 -1304.92,1146.43 -2201.21,1668.49zm-3042.12 34322.92c-336.78,5269.47 -646.76,10704.61 -837.02,14392.69 -41.3,602.78 -957.44,1004.28 -2359.65,1167.55 -1247.57,145.35 -2947.36,141.73 -4804.33,-44.96 -0.9,10 -5129.29,-481.18 -6509.21,-1836.04 -1739.73,3251.62 -3497.07,6064.58 -5220.19,8209.1 -6376.01,7935.29 -14253.77,14325.67 -22585.87,19150.93 -9342.81,5410.64 -19260.95,8855.01 -28275.9,10304.1 -11086.9,1782.16 -22491.86,2368.24 -35132.76,2190.14 -12645.02,-178.25 -26504.29,-1118.98 -42509.11,-2391.42 -17912.89,-1424.13 -34854.83,-8002.65 -50084.72,-16727.14 -21160.34,-12121.83 -33385.99,-27239.65 -39383.22,-49697.69 -5671.62,-21238.52 -7243.72,-48162.94 -3604.87,-73757.66 2064.22,-14519.21 5806.22,-28613.98 11428.66,-41006.14 -13274.93,-390.94 -31415.96,-14798.22 -39679.21,-23061.66l-908.26 -908.31 1243.77 319.84c10393.74,2672.63 24016.9,144.17 33010.72,-5418.81 19838.01,-12270.41 27292.83,-29879.57 30189.18,-51250.49 565.34,-4171.38 895.03,-8446.57 1015.73,-12749.4 -805.71,-5928.85 -2300.04,-10639.23 -4362.29,-14617.06 -2137.76,-4123.42 -4776.55,-7307.36 -7973.5,-10425.04 6159.05,-11584.52 6427.4,-17200.67 6640.75,-22286.97 150.98,-3599.94 280.51,-6685.05 2672.68,-11100.24l263.85 -486.91 328.75 445.66c18665.06,25302.34 29875.73,51464.74 32903.21,75548.7 3712.9,29536.22 -4010.5,55713.03 -14622.56,70287.11 -11145.34,15307.28 -9996.61,38269.4 -2673.06,59691.75 7321.44,21416.26 21089.76,41985.69 35605.17,51880.22 7756.26,-1685.44 16909.51,-2864.96 30814.73,-2890.77 445.19,-0.8 895.4,9.72 1350.35,1.08 2929.25,-55.47 1201.9,-2292.82 276.98,-3300.33 -1936.05,-2108.57 -5115.67,-5181.2 -9778.09,-6487.95l-485.27 -136 295.53 -408.49c6314.62,-8727.87 13196.36,-13437.08 18899.38,-17339.73 4790.87,-3278.37 8739.37,-5980.85 10755.35,-10003.78 -465.66,-2267.81 1057.35,-4891.63 3140.48,-8480.03 1837.59,-3165.32 2056.34,-3414.61 3454.09,-7193.65 1344.99,-3636.31 2765.5,-7475.28 5371.87,-7727.81l174.68 -1519.11c405.72,-4174.62 1048.44,-10948.75 1549.47,-16343.43 406.85,-4380.83 721.95,-7868.47 743.86,-8346.51 406.1,-8854.77 -233.62,-19011.93 -1868.42,-28399.13 -2580.22,2571.87 -5229.25,5098.12 -8209.14,7691.53 -791.02,688.44 -3449.58,1543.99 -6236.34,1673.33 -1974.96,91.66 -4034.62,-174.35 -5578.8,-1109.54 -2570.93,-1557.08 -4731.36,-2664.84 -6554.86,-3599.76 -5279.14,-2706.8 -7794.84,-3996.74 -9379.61,-10407.02 -2507.76,-10143.78 -3726.33,-28573.06 399.57,-38972.66 761.18,-1918.17 1218.19,-3069.25 2764.72,-5374.97 -1313.75,-1187.4 -534.5,-3836.01 486.44,-7304.78 399.33,-1356.82 837.43,-2845.06 1201.15,-4414.06 1810.93,-7811.82 4383.6,-18580.72 12186.08,-26896.91 5608.18,-5977.38 14233.22,-10348.22 24689.05,-12769.06 1731.8,-2648.14 7149.15,-3688.46 9526.26,-3581.55 -3763.03,-5167.11 -6990.11,-10386.79 -9484.5,-14983.46 -1436.46,-2647.24 -4462.49,-6488.69 -7888.03,-9974.26 -2946.1,-2997.73 -6180.17,-5725.5 -8941.04,-7193.65 -4036.73,27.97 -7857.48,-423.08 -11337,-1473.21 -173.64,-52.42 -122.54,-10.7 -208.98,-170.5 -2508.38,-4637.59 -5934.39,-5954.76 -9795.37,-5508.96 -2101.71,242.63 -4339.25,1000.66 -6633.38,2031.13 -2194.87,6112.26 -5894.45,11489.62 -11870.57,12941.2 -6030.36,1464.77 -12369.86,-1556.33 -17303.16,-5480.89 -9443.9,-7512.88 -17003.09,-19521.23 -13927.51,-32592.53 1301.02,-5529.28 5519.8,-9614.77 10672.08,-11277.21 3862.58,-1246.3 8505,-1110.11 11490.99,1592.7 2727.54,-1324.3 5736.34,-2930.33 8749.22,-4620.27 8273.3,-4640.6 16555.75,-9900.87 19152.59,-11714.47 2059.66,-1438.44 4198.17,-2957.79 6330.25,-4472.54 14820.75,-10529.5 29336.21,-20840.55 39850.37,-19453.78 2620.87,-3348.91 5961.56,-6353.49 9826.53,-8646.92 6841.33,-4059.63 13627.05,-6975.69 20559.66,-9954.79 13641.65,-5862.16 25721.11,-10223.04 41956.12,-25765.73 5062.09,-7730.96 8288.22,-13814.55 16725.83,-18271.97 6219.21,-3285.5 13755.97,-4935.69 21154.8,-3994.49 6348.98,807.64 13273,4989.85 18465.23,10189.07 5482.72,5490.19 8811.78,13107.43 10813.67,20026.16 5776.61,19964.06 4173.49,51799.02 -19648.69,56388.7 -6864.7,1322.7 -13860.3,-148.87 -17195.51,-1472.84 -2569.24,435.71 -5248.63,1124.94 -8740.07,2903.67 -2408.13,1226.87 -4348.82,2739.93 -4874.68,4424.57 2684.41,1887.15 7269.44,13244.99 11481.6,26053.89 4347.13,13219.41 8326.93,28015.8 9407.71,35495.07 3464.45,681.58 4357.22,7324.54 4468.73,9622.05 1817.03,147.93 3285.65,729.26 4346.57,2011.42 3603.14,-254.51 10260.13,2822.3 15746.51,7808.12 5470.34,4971.22 10337.19,12220.9 11350.9,21465.95 64.95,592.51 114.04,1193.41 146.38,1802.67 1415.39,10558.89 -14.04,18723.82 -188.62,25031.22 11586.26,22914.91 15237.54,50342.28 17639.43,67374.85 2724.72,19321.67 306.98,34761.06 -5516.85,46072.25l-208.46 404.88c-3940.29,-3558.13 -5578.14,-6118.45 -7538.73,-9201.41 -2193.09,-3448.54 -4154.2,-6532.24 -9343.98,-9498.52 -130.66,-74.72 -93.82,-32.24 -151.22,-175.99 -2405.45,-6025.49 -716.63,-12242.26 -4663.31,-18866.12 -558.15,3987.55 -3327.46,4795.7 -3335.01,9669.22l-0.52 333.96 -333.59 16.66c-4593.61,229.31 -9455.91,-2015.32 -14137.94,-4176.82 -3325.77,-1535.35 -6559.37,-3028 -9491.49,-3530.86 -1855.04,3626.36 -3081.12,6552.61 -3376.69,8621.38 -15.25,106.91 -86.45,302.28 -199.36,562.42 -806.23,3653.17 -5292.89,18481.47 -9793.07,32213.79l2517.34 -98.79c2463.88,248.41 4822.64,2032.96 6499.3,4697.94 1883.91,2994.35 2761.8,6762.35 2360.87,10737.42 -321.57,3189.86 -1386.35,5966.21 -2903.58,7930.7 -1060.55,1373.15 -2343.13,2353.97 -3752.29,2811.54 -2439.52,792.25 -9981.82,1120.86 -12564.62,1411.32 -364.33,2637.76 -1291.78,6536.84 -1927.93,9536.16 -365.6,1723.64 -556.09,3347.69 -730.95,4839.35 -318.34,2715.24 -587.02,5005.29 -1748.14,6748.22 638.45,1394.7 1548.87,2850.97 2578.11,4497.17 4091.31,6543.61 10036.4,16052.36 8754.48,37071.35l-20.18 331.38c-4979.15,0 -7045.34,-913.33 -11700.44,-2986.28 -1481.47,-659.71 -3200.28,-1425.06 -5336.06,-2293.05zm9146.54 -84173.79l-231.89 2299.58c-141.4,1402.87 -4751.3,1130.76 -6168.34,988.46 -1416.57,-142.24 -5989.91,-798.9 -5848.83,-2198.44l81.51 -808.48 -14068.62 443.64c1781.83,831.43 3340.27,2402.83 4531.52,4465.96 3457.04,5987.33 3403.21,15592.53 -908.54,21175.32 -720.15,932.42 -1531.31,1703.59 -2409.63,2281.22 12048.72,-3086.84 24051.02,-2618.57 36204.06,-4408.38 967.72,-361.74 3087.27,-632.58 4571.42,-2554.32 1740.01,-2252.92 3013.86,-5285.99 3127.3,-8689.48 93.67,-2811.31 -688.53,-5774.91 -2083.51,-8530.33 -1159.99,-2291.27 -2817.23,-3453.76 -5622.25,-4426.64 -3597.97,-257.46 -7373.67,-192.32 -11174.2,-38.11zm-10932.46 -4972.67l-618.18 6130.98c-15.76,156.7 493.02,404.59 1328.25,678.48 1751.47,574.39 4473.09,916.94 6612.36,871.7 425.94,-8.96 2318.81,38.02 2400.33,-819.09l517.04 -5434.85c-2220.68,348.37 -8329.7,-200.59 -10239.8,-1427.22zm5493.57 -1170.56c-1544.97,-154.5 -2939.25,-160.65 -3974.6,-40.08 -1869.17,217.62 -1906.2,486.82 -108.78,1076.32 980.67,321.62 2355.23,597.99 3890.87,752.82 1.12,0 6.43,-0.84 6.28,0.66 1533.85,154.21 2934.09,157.69 3958.22,38.39 1868.84,-217.62 1905.87,-486.87 108.69,-1076.23 -978.46,-320.91 -2349.13,-596.87 -3880.68,-751.88zm-17432.28 12399.95c-1622.41,-2810 -3415.22,-5058.57 -6078.89,-5146.84 -2224.06,-74.15 -4289.74,793.41 -5890.13,2865.56 -4136.93,5356.53 -4170.91,14653.77 -856.35,20394.29 1622.5,2810.04 3974.12,4685.97 6637.74,4774.3 2224.07,74.15 3824.23,-1321.16 5424.49,-3393.21 4136.88,-5356.39 4077.7,-13753.63 763.14,-19494.1zm-139525.26 -241144.84c-2801.32,-2337.83 -6206.64,-2382.18 -9735.15,-1243.72 -4921.67,1588 -8679.44,5795.94 -9922.46,11078.88 -3008.66,12786.85 4412,23696.68 13648.93,31044.97 5865.35,4666.03 13032.48,7362.31 19190.87,4452.02 2883.97,-1362.88 5756.71,-5390.08 7284.18,-10274.81 -1717.49,816.93 -2102.98,1097.81 -3839.1,2081.35l-346.45 -610.48c4441.28,-2516.03 9122.33,-5594.85 13186.84,-6064.11 4107.97,-474.29 8993.55,1335.89 10236.24,6520.93 6502.63,1927.37 13731.61,436.56 21832.86,-1063.78 9994.07,-1850.87 21050.62,-4394.91 30597.48,-8740.36 12058.8,-5488.78 21875.66,-10906.46 29826.97,-19640.15 7902.96,-8680.65 13066.5,-31605.79 22899.6,-32910.05l302.52 632.44c-1809.9,865.69 -2557.65,1270.61 -3831.6,2660.06 5236.9,3585.53 9127.68,15369.6 11197.72,27511.15 2364.15,13866.77 2381.8,29658.24 -640.38,36994.18 -6603.3,16028.76 -18508.07,30741.33 -36125.21,33615.39 -25731.57,4197.8 -33274.2,-7244.1 -40265.85,-17735.68 -1855.42,-2784.24 -3698.31,-5549.61 -5875.73,-7997.44l-2444.36 -2829.8c-1341.15,-491.37 -2591.91,-1101.71 -3743.45,-1776.77 -3823.76,-2241.52 -6552.15,-5198.09 -7855.75,-6862.87 -1185.86,109.82 -2358.29,185 -3514.53,222.83 5580.29,3417.19 13283.09,11693.91 16086.19,16859.57 7818.16,14407.8 24660.28,37422.53 42863.87,40648.67 13972.27,2476.27 29037.16,-5138.58 38398.32,-14870.83 1081.33,-1124.23 2140.62,-2227.21 3177.93,-3307.37 14558.97,-15160.2 23990.34,-26566.71 31925.49,-29858.08 -732.17,-5478.22 -3776.54,-22309.07 -8787.61,-37547.65 -4296.12,-13064.4 -8921.32,-24570.12 -11377.97,-25792.96l-247.38 -123.14 61.76 -270.09c461.24,-2017.01 2366.64,-5193.49 5057.58,-6564.44 3080.89,-1569.56 4542.88,-1585.01 7268.92,-2006.21 -3.52,-1.64 -4344.93,-3172.97 -6492.82,-4207.8 104.94,-213.02 94,-726.58 314.77,-639.06 3432.4,1361.05 4029.41,1797.04 5799.65,2807.61 4317.05,2464.54 8453.74,4826.11 18487.05,2892.83 23330.15,-4494.73 24649.76,-36368.22 20092,-54441.48 -1730.77,-6862.97 -5915.24,-13862.6 -11312.37,-19267.05 -5089.11,-5096.06 -11249.47,-8766.91 -17434.66,-9553.76 -21613.65,-2749.6 -36619.5,17188.84 -42586.78,35043.4l-665.49 -222.73c1501.52,-4492.67 2401.47,-8302.3 5022.9,-12701.06 -15525.14,14299.3 -28027.49,19342.23 -41179.51,24993.96 -11885.11,5107.32 -24096.25,11499.52 -30092.78,19772.91 -2999.55,4138.53 -6090.95,9882.14 -6155.53,14239.09l-701.24 -8.26c77.67,-5241.13 1584.91,-9719.01 5068.79,-14393.77 -10213.85,-1036.52 -23712.22,8059.47 -38226.55,18371.27 -2084.73,1481.15 -4175.79,2966.75 -6335.8,4475.26 -2613.17,1824.96 -10927.9,7107.24 -19210.3,11752.95 -5281.86,2962.71 -10559.03,5671.72 -14357.59,7073.69 -464.9,171.58 -1595.42,519.34 -2129.12,341.05l222.74 -665.48c820.54,274.03 4428.93,-1441.68 5381.35,-1895.22zm66283.75 28362.85c15418.74,-2335.38 27314.27,-12365.4 39465.06,-20679.01l396.01 580.25c-10631.17,10489.62 -24167.92,18433.32 -39756.61,20794.47l-104.46 -695.71zm50973.6 16678.66c-4481.92,585.23 -8381.43,2792.87 -11703.87,6089.82 -4233.51,4201.04 -6978.93,9468.31 -6875.64,12986.21l-533.89 1598.76c2625,1661.78 5174.16,2560.61 7803.19,4132.28 -1297.83,-3979.29 -1849.55,-8542.58 -654.12,-12737.14l189.5 -664.92c1833.13,2351.38 3852.44,4751.63 6256.44,7058.1 1661.73,1594.3 3307.56,2922.69 4653.17,3564.56 736.49,351.33 1390.14,763.15 1918.87,1233.87l2314.92 -733.4c-1630.67,-5073.34 -2830.08,-12110.8 -1409.2,-17096.52l189.51 -664.92c2216.65,2843.36 8226.69,10353.47 11654.63,11988.54 414.08,197.49 806.98,468.52 1166.52,793.94 1105.61,-400.98 3909.83,-1906.53 4821.94,-2410.01 -1302.67,-1504 -2916.39,-3961.97 -4297.34,-6790.18 -2172.58,-4449.49 -3819.35,-9846.85 -2851.07,-13917.46l222.04 -861.09 437.63 561.39c709.36,909.94 4025.28,3464.26 7968.43,5892.9 2723.13,1677.22 5737.7,3285.88 8387.06,4237.6 354.09,-656.43 699.64,-1320.69 1036.61,-1992.18 -1621.7,-1115.41 -4134.96,-6621.37 -6535.95,-12247.8 -747.66,131.64 -1527.14,255.68 -2339.61,384.98 -7310.69,1163.42 -17319.5,2756.31 -23141.21,12808.34l-607.76 -351.98c700.03,-1208.71 1125.17,-1879.97 1929.2,-2863.69zm-19718.76 20278.32c82.93,-235.04 182.05,-516.95 258.5,-735.23l179.51 -446.45c-109.35,-3696.06 2718.62,-9174.7 7081.95,-13504.57 3605.39,-3577.7 8266.49,-6387.88 13195.38,-6785.67 6033.51,-6754.56 14493.92,-8920.85 20837.36,-9930.25 756.15,-120.33 1206.97,-167.59 1618.75,-518.87 -1249.21,-2941.54 -2219.23,-5303.96 -3401.05,-7953.93l523.61 -16.28c2565.49,-79.74 9757.68,2620.3 14834.03,4375.24 404.4,-7250.9 -170.03,-16009.55 -1575.2,-24251.22 -2011.04,-11795.28 -5710.67,-22498.39 -10653.22,-26126.87 1417.13,2178.78 4821.38,8167.33 6498.13,15136.5 1060.74,4408.9 1432.62,9214.55 182.37,13711.67l-185.19 666.19c-4061.6,-5147.36 -7475.65,-8630.54 -10646.6,-11843.11 -1485.69,-1505.17 -2702.57,-2738.05 -3516.69,-3708.78 -592.41,1306.19 -1200.87,2552.77 -1826.27,3744.73 4471.64,6335.18 8803.33,16382.33 4351.92,25704.91l-334.39 700.35 -306.36 -712.74c-2924.28,-6803.69 -6884.61,-10321.46 -9609.38,-12741.74 -697.11,-619.26 -1315.05,-1168.12 -1821.82,-1687.79 -862.26,960.07 -1750.1,1872.51 -2664.79,2743.83 941.06,1571.63 2370.02,5830.06 3538.42,10681.24 1010.66,4196.53 1833.31,8850.64 1984.01,12604.05l29.1 723.67c-4565.98,-3314.22 -15528.52,-11345.17 -18406.19,-14801.17 -460.73,257.37 -926.42,512.67 -1397.24,766.34 962.33,1680.03 2151.7,5798.24 3423.02,10200.56 1098.7,3804.8 2025.31,6990.3 3192.11,10169.27l-582.6 -84.57c-8962.67,-1300.93 -14511.66,-9388.85 -17169.37,-13262.68 -320.26,-466.83 -597.86,-871.42 -831.29,-1190.83l-1936.05 883.52c1222.79,3665.18 3666.63,11605.97 7763.3,17080.15l458.61 612.83 -762.49 -51.86c-10269.84,-698.05 -15248.76,-8151.32 -17735.26,-11873.71 -303.18,-453.87 -568.48,-850.81 -800.88,-1170.88 -299.61,111.83 -599.6,222.73 -899.91,332.65 135.92,471.04 281.54,1113.06 457.11,1887.61 762.96,3365.15 2104.39,9281.47 5548.99,13884.33l458.61 612.83 -762.49 -51.86c-9768.33,-663.94 -13525.3,-7256.39 -15701.78,-11075.6 -396.75,-696.27 -739.45,-1297.5 -1051.07,-1740.77 -288.11,76.83 -19.94,8.03 -307.73,82.18 227.34,4280.87 2165.55,9667.99 3709.39,11730.76l464.62 620.8c-1829.14,-141.92 -1975.99,-6.57 -3739.99,-523.52 3746.7,3308.13 4974.51,5952.98 6716.36,8541.09 3113.55,4626.32 4865.3,9044.09 9331.69,12714.9 -1727.63,-3215.25 -2543.9,-6825.61 -2739.75,-10601.13l-57.68 -1112.03c4153.22,5327.53 5450.82,6258.17 8479.37,7426 479.36,184.87 982.18,378.74 1539.39,629.54 -728.37,-1927.18 -1240.58,-3820.71 -1324.54,-5439.36l-57.67 -1111.99 684.67 878.22c1883.44,2415.92 3693.15,4009.19 5464.66,5209.5zm39997.73 -4606.53c-984.71,547.83 -3466.09,1880.02 -4779.13,2423.85 631.78,739.97 1107.9,1648.55 1343.78,2587.78 1532.53,-1314.3 2969,-2724.3 4332.86,-4230.97 -263.33,-175.48 -566.27,-439.8 -897.51,-780.66zm-16689.92 7522.78l-1999.17 617.05c1360.58,1628.93 1017.56,3448.73 -253.8,5117.55 1425.48,-368.78 2810.7,-818.76 4155.98,-1344.43 -602.03,-1011.37 -1275.87,-2547.94 -1903.01,-4390.17zm31711.53 -36813.09c-4629.89,-1601.71 -11428.98,-5042.84 -14168.68,-5275.14 2506.59,5693.63 7731.01,19155.81 9867.59,20551.03 795.01,-1619.26 1540.94,-3279.12 2238.24,-4971.69 1132.12,-2748.05 1763.81,-5763 2062.85,-10304.2zm-6524.45 19468.95c-4761.68,-1735.23 -11917.03,-7307.92 -15547.43,-10777.63 -693.64,3830.84 869.31,8812.67 2898.37,12968.23 1990.73,4077 4383.7,7329.04 5513.61,7891.28 2893.02,-3283.26 4908.19,-6047.17 7135.45,-10081.88zm-13476.22 16097.41c-271.68,-1531.64 -932.1,-3550.71 -2326.65,-4215.87 -3290.34,-1569.42 -8276.07,-8598.05 -10511.49,-11427.01 -660.23,2891.66 -500.85,6413.32 63.92,9791.75 794.87,4754.77 2384.71,9202.58 3625.57,11222.91 3661.37,-1512.68 6085.04,-2838.44 9148.65,-5371.78zm-24072.93 8473.36c-712.74,-1159.43 -1198.71,-1955.66 -1872.22,-3782.83 -1447.73,-937.73 -3520.96,-2098.24 -4958.55,-2796.06 -3146.5,-1527.37 -5970.95,-3375.19 -9377.4,-7410.94 710.16,4398.95 3988.53,10401.11 6107.05,13608.33 2926.15,479.59 6260.94,633.48 10101.12,381.5zm8389.5 -1091.47c2571.63,-2733.41 2193.98,-4709.3 -1063.65,-6263.24 -3310.71,-1579.23 -7665.44,-7184.4 -10016.74,-10128.76 -651.68,2747.3 -551.3,5590.29 -60.45,8218.2 722.13,3866.32 2284.24,7259.49 3544.57,9208.07 2335.24,-183.83 5097.84,-473.49 7596.27,-1034.27zm-19436.7 540.97c-1264.47,-1981.47 -2664.28,-4325.35 -3903.22,-7252.96 -53.45,-126.3 -106.16,-252.77 -158.15,-379.25 -810.55,-406.29 -2050.05,-814.73 -2707.08,-1068.01 -2135.7,-823.36 -3504.96,-1875.09 -7079.42,-6286.99 163.88,1883.11 491.6,3657.01 990.57,5316.45 584.34,1943.18 1403.29,3727.36 2468.72,5344 2788.13,1972.84 6143.33,3504.2 10388.58,4326.76zm36108.08 -83279.32c782.01,980.48 2213.6,3177.04 3831.97,4816.63 2672.73,2707.78 5629.38,6456.17 9239.56,10962.07 1000.29,-4172.93 620.8,-8600.45 -362.4,-12687.07 -1694.97,-7044.78 -5176.6,-13064.87 -6499.3,-15060.8 -2800.99,3528.65 -4151.11,7307.5 -6209.83,11969.17zm-9249.42 15529.12c2836.75,2929.91 9280.86,8996.5 10685.46,14662.97 3701.69,-8669.21 -235.08,-17981.98 -4407.48,-23996.67 -2096.18,3882.09 -3775.47,6465.69 -6277.98,9333.7zm-15155.22 12366.67c2761.1,3230.22 11887.79,11051.62 16202.58,14193.66 -217.85,-3570.05 -991.13,-7850.73 -1927.6,-11739.07 -1126.34,-4676.77 -2480.12,-8767.71 -3380.07,-10351.54 -3536.12,3272.46 -6622.96,5468.32 -10894.91,7896.95zm-14150.39 7118.37c4424.34,6148.82 8754.16,12479.54 16865.35,13959.61 -932.43,-2633.44 -2197.41,-5721.14 -3109.46,-8879.65 -1270.38,-4399.13 -2797.47,-8385.88 -3707,-9939.91 -3308.92,1756.54 -6216.35,3099.71 -10048.89,4859.95zm-12983.44 5522.85c209.18,296.23 442.61,645.68 703.45,1036.19 2360.03,3532.98 7025.45,10514.64 16441.05,11496.62 -3873.79,-5513.23 -6877.47,-12776.33 -8038.6,-16292.27 -3163.43,1425.16 -5785.94,2502.65 -9105.9,3759.46zm-11913.64 3911.24c288.39,437.3 596.16,977.2 944.25,1588.06 2050.19,3597.64 5549.27,9735.43 14383.16,10655.14 -3202.11,-4617.98 -5070.58,-9883.41 -5811.52,-13151.83 -167.73,-740.11 -446.83,-1467.21 -572.84,-1912.21 -3205.77,1156.19 -5717.2,1937.69 -8943.05,2820.84zm-13681.08 2677.56c3366,4120.83 8902.88,8338.95 15342.06,9112.8 -2398.51,-3409.31 -3258.38,-7186.18 -4138.05,-11143.23 -3764.91,943.08 -7398.5,1628.56 -11204.01,2030.43zm1478.52 72627.56c2627.63,1073.27 3791.57,1829 5400.27,4220.66 -965.33,-18473.49 -1158.35,-33566.44 3704.18,-39939.82 -9826.15,2460.83 -17086.72,7259.3 -22441,12966.17 -7698.11,8204.87 -11464.66,18292.66 -13254.51,26013.67 -367.94,1587.35 -343.96,3180.76 -746.49,4548.42 -924.17,3139.98 -1613.3,4795.71 -736.44,5760.56 119.11,-172.24 57.63,-72.69 188.57,-257.93 1330.59,-1882.31 3112.14,-1763.16 5340.75,-2086.32 8560.28,-1241.33 22184.57,547.78 27020.26,9575.82 578.89,-267.98 1169.1,-529.76 1770.42,-785.25 -381.87,-6604.57 -1449.27,-15073.66 -6697.02,-19477.02l451.01 -538.96zm162758.6 8134.85c-4979.86,17592.27 -19181.68,43250.58 -28343.01,59112.44 -2872.84,4974.04 -5433.77,9408.19 -7375.55,13142.4 8333.42,1579.65 12066.55,6497.7 21896.04,7133.48 138.72,-5204.61 4296.96,-5292.04 4453.76,-9871.35l37.21 -1087.01 604.9 902.76c2858.9,4266.41 3306.9,8342.9 3738.9,12274.36 281.54,2562.49 141.97,3861.49 1085.57,6281.54 5261.02,3033.49 8011.09,7244.94 9897.16,10871.87 1410.14,2711.82 2866.17,4851.03 6192.98,7931.17 5609.62,-11151.06 7582.51,-25921.5 4912.23,-44858.1 -2367.44,-16788.71 -5769.9,-39278.19 -17100.19,-61833.56zm-139345.24 37245.13c24.27,13229.88 719.36,23946.17 3673.35,36827.54 4853,3364.58 11382.15,5192.08 20362.65,7096.97 7868.05,1668.87 16138.85,1730.39 26240.68,2456.65 -13.94,-1699.33 209.26,-6110.43 676.28,-10747.92 985.03,-9780.58 3225.95,-23057.16 3219.61,-29664.4 -11109.81,-7075.89 -29299.13,-16869.48 -37810.88,-19848.9 -1643.81,1189.66 -3208.78,2406.77 -4672.93,3625.43 -4495.02,3741.25 -8320.37,7128.93 -11688.76,10254.63zm110004.71 -231492.05c1586.98,-238.78 3204.41,792.76 4540.21,2659.3 2794.75,3905.09 3912.04,10770.13 2500.4,15360.04 -1465,4763.41 -5182.32,5356.1 -8075.16,1313.97 -2794.7,-3904.99 -3912.08,-10770.17 -2500.39,-15360.08 683.13,-2221.15 1914.84,-3730.55 3534.94,-3973.23zm-113778.91 146668.74l-8.11 51.3c-1400.52,-224.52 -3838.64,435.8 -5835.89,1243.76 -1590.59,643.48 -2180.93,990.06 -3428.69,2085.25 -6334.34,5560.06 -4657.63,34594.83 -3469.38,55171.58l35.81 620.39c3584.5,-1472.56 7777,-2792.69 12181.15,-3730.46 -148.25,-3002.75 -521.5,-6876.25 -935.24,-11170.59 -1515.59,-15730.22 -3570.28,-37067.26 2891.85,-42369.58 -484.94,-631.79 -962.18,-1266.11 -1431.5,-1901.65zm2654.33 3468.25c-6155.1,5073.77 -4915.79,25173.19 -3416.25,40737 409.61,4251.58 779.66,8091.95 932.19,11090 11261.96,-2328.58 25145.68,-2774.61 41897.36,-316.45 1761.51,258.44 6574.49,958.42 7276.43,2612.13 3226.24,439.18 7505.23,1133.86 11983.2,2055.49 2762.6,-14030.75 4931.62,-23661.16 7054.17,-30747.28 2147.75,-7170.28 4249.99,-11743.06 6869.73,-15629.09 3690.85,-5474.84 11881.45,-15031.33 20358.29,-21745.01 5759.57,-4561.61 11666.32,-7817.27 16429.54,-7624.33 -57.02,-1003.01 -272.67,-2575.77 -742.68,-4108.96 -427.12,-1393.81 -1260.01,-2842.29 -2756.13,-3299.96 113.9,556.93 100.2,934.26 22.58,1252.31l-222.74 88.89c-7820.74,3122.18 -18136.43,13863.87 -32773.2,29105.07 -1037.37,1080.21 -2096.56,2183.14 -3177.94,3307.37 -2874.67,2988.62 -10147.54,9663.68 -19507.15,13570.55 -5785.38,2414.94 -12368.03,3774.11 -19207.77,2561.97 -12316.32,-2182.76 -23044.3,-12639.95 -31019.63,-22909.7zm-32683.28 67141.93c3597.55,-3772.32 6659.24,-6418.86 12574.86,-9243.41 -4724.98,-8763.67 -16445.97,-11187.67 -24769.35,-9982.24 -2030.75,294.07 -3899.92,564.72 -5025.56,2157.14 -2182.07,3086.94 -2625.42,4238.11 -3506.56,6458.71 -4026.36,10147.34 -1350.58,28351.78 1098.76,38259.35 1508.17,6100.76 2503.44,7529.63 7588.52,10136.84 1833.17,939.93 4005.19,2053.61 6598.89,3624.44 1408.77,853.21 3329.34,1093.92 5185.6,1007.8 2634.34,-122.26 4416.69,-2317.27 5121.59,-2930.75 5177.21,-4505.72 9220.41,-8364.02 13765.13,-13045.63 6457.11,-6651.59 14481.9,-13093.26 26411.83,-23022.71 8872.52,-7384.7 21760.88,-14982.14 33528.85,-16413.96 -952.7,-1065.24 -5053.87,-1821.02 -6577.72,-1941.26 -17465.32,-1378.18 -30820.92,-1300.37 -42136.25,1146.67 -13362.12,2889.64 -23165.04,7787.65 -29349.86,14272.97l-508.73 -483.96zm52821.61 574.3c5999.48,2187.32 16879.52,7000.71 27330.51,13010.47 9313.71,5355.83 17598.27,10983.33 21272.22,14657.76 4233.56,4259.32 17459.22,17105.77 23744.13,14667.94 3513.74,-1362.88 5624.88,-3648.05 8882.84,-8131.71 1135.97,-1563.41 2350.22,-3234.49 3709.25,-4958.74 2552.16,-3238.1 4386.08,-6645.25 6710.16,-9400.77 8455.01,-10024.76 15793.39,-17492.86 19531.88,-32263.39 777.18,-3956.71 -1544.55,-9025.55 -5374.69,-13501.33 -3943.11,-4607.78 -9472.48,-8567.22 -14874.91,-10043.72 -3842.95,-1050.27 -10889.47,-1975 -17873.05,-1576.27 -6909.24,394.45 -13263.25,2450.22 -16337.75,9303.38 -1396.29,3770.82 -2472.09,7225.65 -2422.39,10878.44 54.48,4002.71 864.42,7798.87 2181.4,11083.72 953.41,435.66 1823.74,886.95 2590.69,1353.26 3468.68,2108.94 6759.82,6310.03 8390.81,10516.79l-654.5 252.96c-1570.41,-4050.58 -5260.6,-7428.45 -8595.9,-9456.24 -2975.01,-1808.73 -7266.29,-3769.56 -12249.53,-5092.17 -7030.23,-1865.89 -14619.41,-3539.87 -19683.37,-4222.62 -5317.34,576.31 -10924.48,2469.32 -16313.21,5079.72 -4189.21,2029.35 -10036.92,6843.21 -9964.59,7842.52zm39223.22 -11394.87c5326.03,1119.12 11616.25,2711.58 16347.7,4720.66 -2537.14,-6799.94 -2685.44,-14682.16 -132.44,-21831.65 -840.44,-356.72 -992.73,-1289.05 -741.56,-2643.77 287.88,-1552.76 1198.01,-3926.67 1961.02,-6068.42 934.35,-2622.7 765.21,-7150.75 2312.58,-11678.2 1450.68,-4244.68 4346.8,-10901.06 6822.32,-14295.35 6378.17,-8745.28 15668.75,-19059.37 24997.66,-21499.37 871.23,-227.85 774.23,-202.51 1023.01,-269.85 -395.87,-611.61 -1108.7,-1051.87 -2612.7,-1039.76 -4644.02,37.45 -10158.1,2894.05 -15949.54,7480.91 -8413.05,6663.14 -16544.66,15561.74 -20209.79,20998.43 -2580.04,3827.18 -4654.02,8342.52 -6778.97,15436.67 -2115.51,7062.52 -4280.07,16675.56 -7039.29,30689.7zm55583.04 -73144.37l-650.19 28.81c-3890.91,172.52 -8313.65,2084.12 -13105.41,5819.09 -4614.08,3596.51 -9559.35,8875.79 -14691.36,15912.27 -2420.47,3318.78 -4930.67,9984.12 -6350.76,14139.3 -1531.65,4481.55 -1187.97,8988.67 -2160.1,11717.53 -832.84,2337.91 -2589.99,6612.82 -1595.19,6695.47 878.13,-1609.69 2080.97,-3115.71 4062.55,-4675.37 3443.99,-2710.7 7998.09,-3760.22 12579.88,-4021.81 7078.38,-404.17 14333.18,1221.71 18219.96,2284 5540.92,1514.37 11198.89,5560.02 15224.17,10263.73 3527.76,4122.43 5811.05,8144.66 5687.53,12064.25 5674.82,-9001.48 8156.67,-25486.63 8211.54,-35422.23 57.86,-10479.67 -4387.03,-20204.73 -11226.86,-26420.52 -5359.67,-4870.7 -10847.94,-8336.84 -14205.76,-8384.52z"/>
   <path class="fil11" d="M373194.62 42045.31c2983.59,0 5402.33,2861.15 5402.33,6390.51 0,3529.41 -2418.74,6390.56 -5402.33,6390.56 -2983.6,0 -5402.34,-2861.15 -5402.34,-6390.56 0,-3529.36 2418.74,-6390.51 5402.34,-6390.51z"/>
  </g>
 </g>
</svg>
